<?xml version="1.0" encoding="utf-8" standalone="no"?>
<!DOCTYPE svg PUBLIC "-//W3C//DTD SVG 1.1//EN"
  "http://www.w3.org/Graphics/SVG/1.1/DTD/svg11.dtd">
<svg xmlns:xlink="http://www.w3.org/1999/xlink" width="646.975625pt" height="413.606312pt" viewBox="0 0 646.975625 413.606312" xmlns="http://www.w3.org/2000/svg" version="1.1">
 <metadata>
  <rdf:RDF xmlns:dc="http://purl.org/dc/elements/1.1/" xmlns:cc="http://creativecommons.org/ns#" xmlns:rdf="http://www.w3.org/1999/02/22-rdf-syntax-ns#">
   <cc:Work>
    <dc:type rdf:resource="http://purl.org/dc/dcmitype/StillImage"/>
    <dc:date>2025-04-22T10:42:20.863779</dc:date>
    <dc:format>image/svg+xml</dc:format>
    <dc:creator>
     <cc:Agent>
      <dc:title>Matplotlib v3.9.2, https://matplotlib.org/</dc:title>
     </cc:Agent>
    </dc:creator>
   </cc:Work>
  </rdf:RDF>
 </metadata>
 <defs>
  <style type="text/css">*{stroke-linejoin: round; stroke-linecap: butt}</style>
 </defs>
 <g id="figure_1">
  <g id="patch_1">
   <path d="M 0 413.606312 
L 646.975625 413.606312 
L 646.975625 0 
L 0 0 
z
" style="fill: #ffffff"/>
  </g>
  <g id="axes_1">
   <g id="patch_2">
    <path d="M 81.775625 361.351 
L 639.775625 361.351 
L 639.775625 28.711 
L 81.775625 28.711 
z
" style="fill: #e5e5e5"/>
   </g>
   <g id="matplotlib.axis_1">
    <g id="xtick_1">
     <g id="line2d_1">
      <path d="M 81.775625 361.351 
L 81.775625 28.711 
" clip-path="url(#pf0fe06d71f)" style="fill: none; stroke: #ffffff; stroke-width: 0.8; stroke-linecap: square"/>
     </g>
     <g id="line2d_2">
      <defs>
       <path id="mf803c71710" d="M 0 0 
L 0 3.5 
" style="stroke: #555555; stroke-width: 0.8"/>
      </defs>
      <g>
       <use xlink:href="#mf803c71710" x="81.775625" y="361.351" style="fill: #555555; stroke: #555555; stroke-width: 0.8"/>
      </g>
     </g>
     <g id="text_1">
      <!-- 0 -->
      <g style="fill: #555555" transform="translate(78.843594 376.34475) scale(0.1 -0.1)">
       <defs>
        <path id="MicrosoftYaHei-30" d="M 284 2325 
Q 284 3606 709 4264 
Q 1134 4922 1941 4922 
Q 3478 4922 3478 2441 
Q 3478 1216 3045 567 
Q 2613 -81 1831 -81 
Q 1094 -81 689 534 
Q 284 1150 284 2325 
z
M 909 2353 
Q 909 425 1888 425 
Q 2850 425 2850 2384 
Q 2850 4413 1906 4413 
Q 909 4413 909 2353 
z
" transform="scale(0.015625)"/>
       </defs>
       <use xlink:href="#MicrosoftYaHei-30"/>
      </g>
     </g>
    </g>
    <g id="xtick_2">
     <g id="line2d_3">
      <path d="M 202.445146 361.351 
L 202.445146 28.711 
" clip-path="url(#pf0fe06d71f)" style="fill: none; stroke: #ffffff; stroke-width: 0.8; stroke-linecap: square"/>
     </g>
     <g id="line2d_4">
      <g>
       <use xlink:href="#mf803c71710" x="202.445146" y="361.351" style="fill: #555555; stroke: #555555; stroke-width: 0.8"/>
      </g>
     </g>
     <g id="text_2">
      <!-- 2000 -->
      <g style="fill: #555555" transform="translate(190.717021 376.34475) scale(0.1 -0.1)">
       <defs>
        <path id="MicrosoftYaHei-32" d="M 2666 3572 
Q 2666 3963 2419 4186 
Q 2172 4409 1747 4409 
Q 1447 4409 1140 4256 
Q 834 4103 569 3819 
L 569 4413 
Q 806 4659 1107 4790 
Q 1409 4922 1816 4922 
Q 2472 4922 2872 4570 
Q 3272 4219 3272 3619 
Q 3272 3084 3026 2693 
Q 2781 2303 2188 1894 
Q 1581 1475 1376 1294 
Q 1172 1113 1090 947 
Q 1009 781 1009 544 
L 3416 544 
L 3416 0 
L 372 0 
L 372 241 
Q 372 659 486 951 
Q 600 1244 862 1520 
Q 1125 1797 1681 2184 
Q 2250 2584 2458 2886 
Q 2666 3188 2666 3572 
z
" transform="scale(0.015625)"/>
       </defs>
       <use xlink:href="#MicrosoftYaHei-32"/>
       <use xlink:href="#MicrosoftYaHei-30" x="58.642578"/>
       <use xlink:href="#MicrosoftYaHei-30" x="117.285156"/>
       <use xlink:href="#MicrosoftYaHei-30" x="175.927734"/>
      </g>
     </g>
    </g>
    <g id="xtick_3">
     <g id="line2d_5">
      <path d="M 323.114667 361.351 
L 323.114667 28.711 
" clip-path="url(#pf0fe06d71f)" style="fill: none; stroke: #ffffff; stroke-width: 0.8; stroke-linecap: square"/>
     </g>
     <g id="line2d_6">
      <g>
       <use xlink:href="#mf803c71710" x="323.114667" y="361.351" style="fill: #555555; stroke: #555555; stroke-width: 0.8"/>
      </g>
     </g>
     <g id="text_3">
      <!-- 4000 -->
      <g style="fill: #555555" transform="translate(311.386542 376.34475) scale(0.1 -0.1)">
       <defs>
        <path id="MicrosoftYaHei-34" d="M 2906 4841 
L 2906 1644 
L 3631 1644 
L 3631 1138 
L 2906 1138 
L 2906 0 
L 2313 0 
L 2313 1138 
L 53 1138 
L 53 1616 
Q 656 2294 1265 3178 
Q 1875 4063 2272 4841 
L 2906 4841 
z
M 741 1644 
L 2313 1644 
L 2313 3950 
Q 1988 3366 1616 2817 
Q 1244 2269 741 1644 
z
" transform="scale(0.015625)"/>
       </defs>
       <use xlink:href="#MicrosoftYaHei-34"/>
       <use xlink:href="#MicrosoftYaHei-30" x="58.642578"/>
       <use xlink:href="#MicrosoftYaHei-30" x="117.285156"/>
       <use xlink:href="#MicrosoftYaHei-30" x="175.927734"/>
      </g>
     </g>
    </g>
    <g id="xtick_4">
     <g id="line2d_7">
      <path d="M 443.784189 361.351 
L 443.784189 28.711 
" clip-path="url(#pf0fe06d71f)" style="fill: none; stroke: #ffffff; stroke-width: 0.8; stroke-linecap: square"/>
     </g>
     <g id="line2d_8">
      <g>
       <use xlink:href="#mf803c71710" x="443.784189" y="361.351" style="fill: #555555; stroke: #555555; stroke-width: 0.8"/>
      </g>
     </g>
     <g id="text_4">
      <!-- 6000 -->
      <g style="fill: #555555" transform="translate(432.056064 376.34475) scale(0.1 -0.1)">
       <defs>
        <path id="MicrosoftYaHei-36" d="M 3181 4219 
Q 2803 4413 2391 4413 
Q 1763 4413 1381 3866 
Q 1000 3319 994 2372 
L 1009 2372 
Q 1353 3038 2106 3038 
Q 2734 3038 3109 2628 
Q 3484 2219 3484 1541 
Q 3484 831 3051 375 
Q 2619 -81 1947 -81 
Q 1209 -81 789 495 
Q 369 1072 369 2131 
Q 369 3413 920 4167 
Q 1472 4922 2372 4922 
Q 2888 4922 3181 4781 
L 3181 4219 
z
M 1031 1584 
Q 1031 1106 1286 765 
Q 1541 425 1963 425 
Q 2363 425 2613 719 
Q 2863 1013 2863 1475 
Q 2863 1975 2627 2253 
Q 2391 2531 1956 2531 
Q 1544 2531 1287 2250 
Q 1031 1969 1031 1584 
z
" transform="scale(0.015625)"/>
       </defs>
       <use xlink:href="#MicrosoftYaHei-36"/>
       <use xlink:href="#MicrosoftYaHei-30" x="58.642578"/>
       <use xlink:href="#MicrosoftYaHei-30" x="117.285156"/>
       <use xlink:href="#MicrosoftYaHei-30" x="175.927734"/>
      </g>
     </g>
    </g>
    <g id="xtick_5">
     <g id="line2d_9">
      <path d="M 564.45371 361.351 
L 564.45371 28.711 
" clip-path="url(#pf0fe06d71f)" style="fill: none; stroke: #ffffff; stroke-width: 0.8; stroke-linecap: square"/>
     </g>
     <g id="line2d_10">
      <g>
       <use xlink:href="#mf803c71710" x="564.45371" y="361.351" style="fill: #555555; stroke: #555555; stroke-width: 0.8"/>
      </g>
     </g>
     <g id="text_5">
      <!-- 8000 -->
      <g style="fill: #555555" transform="translate(552.725585 376.34475) scale(0.1 -0.1)">
       <defs>
        <path id="MicrosoftYaHei-38" d="M 306 1350 
Q 306 1769 556 2122 
Q 806 2475 1200 2625 
Q 884 2803 700 3081 
Q 516 3359 516 3684 
Q 516 4028 692 4312 
Q 869 4597 1183 4759 
Q 1497 4922 1875 4922 
Q 2256 4922 2572 4761 
Q 2888 4600 3063 4315 
Q 3238 4031 3238 3684 
Q 3238 3366 3058 3086 
Q 2878 2806 2559 2625 
Q 2953 2472 3200 2119 
Q 3447 1766 3447 1350 
Q 3447 938 3250 611 
Q 3053 284 2690 103 
Q 2328 -78 1875 -78 
Q 1425 -78 1065 103 
Q 706 284 506 612 
Q 306 941 306 1350 
z
M 906 1378 
Q 906 947 1172 687 
Q 1438 428 1878 428 
Q 2309 428 2582 692 
Q 2856 956 2856 1378 
Q 2856 1778 2579 2051 
Q 2303 2325 1878 2325 
Q 1456 2325 1181 2058 
Q 906 1791 906 1378 
z
M 1081 3634 
Q 1081 3309 1312 3076 
Q 1544 2844 1878 2844 
Q 2206 2844 2445 3078 
Q 2684 3313 2684 3634 
Q 2684 3963 2454 4191 
Q 2225 4419 1878 4419 
Q 1534 4419 1307 4195 
Q 1081 3972 1081 3634 
z
" transform="scale(0.015625)"/>
       </defs>
       <use xlink:href="#MicrosoftYaHei-38"/>
       <use xlink:href="#MicrosoftYaHei-30" x="58.642578"/>
       <use xlink:href="#MicrosoftYaHei-30" x="117.285156"/>
       <use xlink:href="#MicrosoftYaHei-30" x="175.927734"/>
      </g>
     </g>
    </g>
    <g id="text_6">
     <!-- 销售数 -->
     <g style="fill: #555555" transform="translate(342.775625 403.423187) scale(0.12 -0.12)">
      <defs>
       <path id="MicrosoftYaHei-9500" d="M 2981 -841 
L 2525 -841 
L 2525 3534 
L 3956 3534 
L 3956 5309 
L 4438 5309 
L 4438 3534 
L 5931 3534 
L 5931 -91 
Q 5931 -816 5250 -816 
Q 4900 -816 4256 -797 
Q 4219 -566 4169 -284 
Q 4756 -322 5063 -322 
Q 5475 -322 5475 28 
L 5475 622 
L 2981 622 
L 2981 -841 
z
M 2275 541 
Q 2275 266 2306 22 
Q 1906 -172 1375 -491 
Q 1263 -553 1113 -703 
L 781 -272 
Q 981 -91 981 197 
L 981 1559 
L 144 1559 
L 144 1991 
L 981 1991 
L 981 2834 
L 575 2834 
L 575 3266 
L 2169 3266 
L 2169 2834 
L 1438 2834 
L 1438 1991 
L 2313 1991 
L 2313 1559 
L 1438 1559 
L 1438 72 
Q 1894 316 2275 541 
z
M 2981 1072 
L 5475 1072 
L 5475 1847 
L 2981 1847 
L 2981 1072 
z
M 5475 3066 
L 2981 3066 
L 2981 2297 
L 5475 2297 
L 5475 3066 
z
M 88 3384 
Q 694 4253 1056 5316 
L 1525 5159 
Q 1356 4741 1163 4353 
L 2319 4353 
L 2319 3922 
L 944 3922 
Q 669 3416 350 2959 
Q 231 3184 88 3384 
z
M 4825 4041 
Q 5269 4522 5688 5103 
L 6100 4791 
Q 5719 4328 5163 3747 
L 4825 4041 
z
M 2319 4859 
L 2663 5122 
Q 3113 4678 3550 4122 
L 3156 3803 
Q 2725 4409 2319 4859 
z
" transform="scale(0.015625)"/>
       <path id="MicrosoftYaHei-552e" d="M 3100 5147 
L 3500 5384 
Q 3775 5028 3994 4703 
L 3756 4559 
L 6044 4559 
L 6044 4172 
L 3825 4172 
L 3825 3722 
L 5850 3722 
L 5850 3334 
L 3825 3334 
L 3825 2884 
L 5850 2884 
L 5850 2497 
L 3825 2497 
L 3825 2034 
L 6169 2034 
L 6169 1647 
L 1319 1647 
L 1319 1403 
L 856 1403 
L 856 3522 
Q 600 3222 331 2953 
Q 206 3147 38 3347 
Q 969 4216 1500 5341 
L 1950 5178 
Q 1775 4853 1594 4559 
L 3494 4559 
Q 3319 4847 3100 5147 
z
M 869 1159 
L 5594 1159 
L 5594 -853 
L 5131 -853 
L 5131 -534 
L 1331 -534 
L 1331 -853 
L 869 -853 
L 869 1159 
z
M 5131 759 
L 1331 759 
L 1331 -134 
L 5131 -134 
L 5131 759 
z
M 1319 2034 
L 3363 2034 
L 3363 2497 
L 1319 2497 
L 1319 2034 
z
M 1319 2884 
L 3363 2884 
L 3363 3334 
L 1319 3334 
L 1319 2884 
z
M 1319 3722 
L 3363 3722 
L 3363 4172 
L 1344 4172 
L 1319 4134 
L 1319 3722 
z
" transform="scale(0.015625)"/>
       <path id="MicrosoftYaHei-6570" d="M 4175 5303 
L 4675 5228 
Q 4544 4622 4369 4097 
L 6281 4097 
L 6281 3672 
L 5888 3672 
Q 5731 1834 5088 753 
Q 5594 66 6375 -372 
Q 6175 -647 6038 -866 
Q 5275 -372 4769 309 
Q 4194 -403 3400 -928 
Q 3263 -747 3044 -534 
Q 3919 41 4463 772 
Q 3956 1647 3794 2791 
Q 3663 2559 3519 2359 
Q 3394 2541 3206 2759 
Q 3931 3803 4175 5303 
z
M 150 1697 
L 1100 1697 
Q 1238 1934 1369 2184 
L 1819 2041 
Q 1719 1866 1619 1697 
L 3150 1697 
L 3150 1291 
Q 2913 678 2431 216 
Q 2775 53 3131 -109 
L 2856 -541 
Q 2469 -322 2050 -103 
Q 1344 -609 269 -903 
Q 169 -703 56 -466 
Q 969 -259 1600 128 
Q 1063 403 475 691 
Q 675 978 863 1284 
L 150 1284 
L 150 1697 
z
M 219 3847 
L 1656 3847 
L 1656 5247 
L 2119 5247 
L 2119 3847 
L 3319 3847 
L 3319 3434 
L 2119 3434 
L 2119 3053 
L 2306 3266 
Q 2888 2841 3281 2516 
L 2981 2166 
Q 2638 2491 2119 2897 
L 2119 2184 
L 1656 2184 
L 1656 3059 
Q 1088 2466 331 2016 
Q 213 2197 63 2397 
Q 850 2822 1506 3434 
L 219 3434 
L 219 3847 
z
M 5388 3672 
L 4219 3672 
Q 4188 3591 4150 3516 
Q 4263 2191 4775 1247 
Q 5275 2159 5388 3672 
z
M 1088 834 
Q 1531 634 2000 416 
Q 2431 784 2675 1284 
L 1375 1284 
Q 1231 1053 1088 834 
z
M 3038 5091 
L 3425 4834 
Q 3081 4384 2738 4003 
Q 2594 4128 2400 4266 
Q 2725 4647 3038 5091 
z
M 381 4816 
L 738 5059 
Q 1019 4716 1319 4322 
L 931 4047 
Q 656 4453 381 4816 
z
" transform="scale(0.015625)"/>
      </defs>
      <use xlink:href="#MicrosoftYaHei-9500"/>
      <use xlink:href="#MicrosoftYaHei-552e" x="100"/>
      <use xlink:href="#MicrosoftYaHei-6570" x="200"/>
     </g>
    </g>
   </g>
   <g id="matplotlib.axis_2">
    <g id="ytick_1">
     <g id="line2d_11">
      <path d="M 81.775625 336.151 
L 639.775625 336.151 
" clip-path="url(#pf0fe06d71f)" style="fill: none; stroke: #ffffff; stroke-width: 0.8; stroke-linecap: square"/>
     </g>
     <g id="line2d_12">
      <defs>
       <path id="md911ddbfc9" d="M 0 0 
L -3.5 0 
" style="stroke: #555555; stroke-width: 0.8"/>
      </defs>
      <g>
       <use xlink:href="#md911ddbfc9" x="81.775625" y="336.151" style="fill: #555555; stroke: #555555; stroke-width: 0.8"/>
      </g>
     </g>
     <g id="text_7">
      <!-- 办公家具 -->
      <g style="fill: #555555" transform="translate(34.775625 340.147875) scale(0.1 -0.1)">
       <defs>
        <path id="MicrosoftYaHei-529e" d="M 456 4166 
L 2291 4166 
Q 2313 4725 2319 5297 
L 2844 5297 
Q 2834 4728 2809 4166 
L 5119 4166 
Q 5056 1628 5013 609 
Q 4931 -622 3931 -634 
Q 3375 -634 2744 -609 
Q 2719 -359 2656 -9 
Q 3325 -84 3856 -84 
Q 4469 -72 4506 734 
Q 4569 2003 4600 3653 
L 2784 3653 
Q 2688 1706 2269 897 
Q 1875 28 550 -803 
Q 400 -578 231 -372 
Q 1481 441 1819 1197 
Q 2178 1856 2266 3653 
L 456 3653 
L 456 4166 
z
M 969 3103 
L 1469 2916 
Q 1069 1972 581 1028 
Q 375 1141 100 1266 
Q 606 2116 969 3103 
z
M 5206 2909 
L 5663 3059 
Q 5981 2309 6319 1384 
L 5806 1203 
Q 5544 2041 5206 2909 
z
" transform="scale(0.015625)"/>
        <path id="MicrosoftYaHei-516c" d="M 4144 1591 
Q 5044 422 5663 -534 
L 5188 -847 
Q 5013 -559 4816 -250 
Q 2753 -350 1463 -453 
Q 1225 -478 888 -559 
L 613 -28 
Q 894 84 1131 316 
Q 1863 1159 2719 2809 
L 3256 2566 
Q 2481 1234 1600 78 
Q 2891 119 4522 194 
Q 4166 734 3738 1334 
L 4144 1591 
z
M 3606 4953 
L 4069 5134 
Q 4675 3503 6325 2547 
Q 6156 2372 5938 2059 
Q 4213 3247 3606 4953 
z
M 75 2366 
Q 1469 3503 2156 5047 
L 2650 4841 
Q 1806 3084 475 1966 
Q 313 2172 75 2366 
z
" transform="scale(0.015625)"/>
        <path id="MicrosoftYaHei-5bb6" d="M 194 -209 
Q 2081 331 3200 1556 
Q 3113 1738 2997 1903 
Q 2066 941 425 422 
Q 331 634 200 847 
Q 1809 1291 2703 2256 
Q 2600 2359 2478 2459 
Q 1650 1872 444 1497 
Q 325 1703 163 1941 
Q 1653 2272 2550 3053 
L 975 3053 
L 975 3503 
L 5438 3503 
L 5438 3053 
L 3169 3053 
Q 3009 2884 2825 2728 
Q 3316 2331 3588 1841 
Q 4566 2319 5325 2822 
L 5619 2422 
Q 5109 2116 4534 1816 
Q 5088 616 6331 141 
Q 6125 -97 5944 -347 
Q 4722 278 4131 1609 
Q 3953 1522 3769 1431 
Q 4125 103 3656 -503 
Q 3431 -772 2794 -772 
Q 2544 -772 2006 -753 
Q 1969 -509 1913 -234 
Q 2400 -291 2781 -291 
Q 3456 -328 3438 522 
Q 3428 803 3369 1063 
Q 2263 -28 419 -641 
Q 325 -434 194 -209 
z
M 331 4528 
L 3156 4528 
Q 2972 4806 2725 5122 
L 3163 5403 
Q 3444 5059 3675 4722 
L 3356 4528 
L 6063 4528 
L 6063 3459 
L 5563 3459 
L 5563 4066 
L 831 4066 
L 831 3459 
L 331 3459 
L 331 4528 
z
" transform="scale(0.015625)"/>
        <path id="MicrosoftYaHei-5177" d="M 94 1022 
L 956 1022 
L 956 5041 
L 5438 5041 
L 5438 1022 
L 6288 1022 
L 6288 572 
L 94 572 
L 94 1022 
z
M 1438 1022 
L 4956 1022 
L 4956 1609 
L 1438 1609 
L 1438 1022 
z
M 4956 4591 
L 1438 4591 
L 1438 4016 
L 4956 4016 
L 4956 4591 
z
M 1438 3022 
L 4956 3022 
L 4956 3597 
L 1438 3597 
L 1438 3022 
z
M 1438 2028 
L 4956 2028 
L 4956 2603 
L 1438 2603 
L 1438 2028 
z
M 3719 -9 
L 3981 403 
Q 5075 72 6200 -347 
L 5956 -841 
Q 5106 -466 3719 -9 
z
M 2319 441 
L 2619 28 
Q 1519 -478 400 -872 
Q 306 -666 169 -403 
Q 1131 -116 2319 441 
z
" transform="scale(0.015625)"/>
       </defs>
       <use xlink:href="#MicrosoftYaHei-529e"/>
       <use xlink:href="#MicrosoftYaHei-516c" x="100"/>
       <use xlink:href="#MicrosoftYaHei-5bb6" x="200"/>
       <use xlink:href="#MicrosoftYaHei-5177" x="300"/>
      </g>
     </g>
    </g>
    <g id="ytick_2">
     <g id="line2d_13">
      <path d="M 81.775625 295.831 
L 639.775625 295.831 
" clip-path="url(#pf0fe06d71f)" style="fill: none; stroke: #ffffff; stroke-width: 0.8; stroke-linecap: square"/>
     </g>
     <g id="line2d_14">
      <g>
       <use xlink:href="#md911ddbfc9" x="81.775625" y="295.831" style="fill: #555555; stroke: #555555; stroke-width: 0.8"/>
      </g>
     </g>
     <g id="text_8">
      <!-- 电脑硬件 -->
      <g style="fill: #555555" transform="translate(34.775625 299.827875) scale(0.1 -0.1)">
       <defs>
        <path id="MicrosoftYaHei-7535" d="M 406 4497 
L 2713 4497 
L 2713 5297 
L 3231 5297 
L 3231 4497 
L 5544 4497 
L 5544 984 
L 3231 984 
L 3231 253 
Q 3231 -128 3631 -128 
L 5094 -128 
Q 5519 -128 5613 153 
Q 5713 459 5756 1034 
Q 5938 953 6275 841 
Q 6200 341 6106 -16 
Q 5950 -603 5256 -603 
L 3594 -603 
Q 2713 -603 2713 259 
L 2713 984 
L 925 984 
L 925 553 
L 406 553 
L 406 4497 
z
M 5025 1453 
L 5025 2522 
L 3231 2522 
L 3231 1453 
L 5025 1453 
z
M 925 1453 
L 2713 1453 
L 2713 2522 
L 925 2522 
L 925 1453 
z
M 5025 4028 
L 3231 4028 
L 3231 2966 
L 5025 2966 
L 5025 4028 
z
M 925 2966 
L 2713 2966 
L 2713 4028 
L 925 4028 
L 925 2966 
z
" transform="scale(0.015625)"/>
        <path id="MicrosoftYaHei-8111" d="M 506 4941 
L 2188 4941 
L 2188 -128 
Q 2181 -741 1588 -734 
Q 1194 -734 1013 -716 
Q 994 -534 938 -247 
Q 1256 -291 1488 -291 
Q 1744 -291 1744 -3 
L 1744 1366 
L 950 1366 
Q 950 -134 431 -822 
Q 244 -609 75 -472 
Q 506 166 506 1197 
L 506 4941 
z
M 2725 3278 
L 3175 3278 
L 3175 -66 
L 5563 -66 
L 5563 3272 
L 6013 3272 
L 6013 -803 
L 5563 -803 
L 5563 -516 
L 2725 -516 
L 2725 3278 
z
M 3275 3553 
L 3631 3766 
Q 4006 3109 4375 2453 
Q 4691 3097 4963 3797 
L 5369 3634 
Q 5022 2772 4625 2000 
Q 5028 1275 5425 547 
L 5031 334 
Q 4753 875 4388 1550 
Q 4025 897 3625 316 
Q 3400 459 3244 541 
Q 3728 1225 4141 2000 
Q 3750 2713 3275 3553 
z
M 2500 4391 
L 4309 4391 
Q 4113 4784 3913 5103 
L 4344 5316 
Q 4575 4953 4769 4603 
L 4353 4391 
L 6319 4391 
L 6319 3941 
L 2500 3941 
L 2500 4391 
z
M 950 1791 
L 1744 1791 
L 1744 2941 
L 950 2941 
L 950 1791 
z
M 1744 4503 
L 950 4503 
L 950 3366 
L 1744 3366 
L 1744 4503 
z
" transform="scale(0.015625)"/>
        <path id="MicrosoftYaHei-786c" d="M 2656 3978 
L 4081 3978 
L 4081 4541 
L 2525 4541 
L 2525 4966 
L 6263 4966 
L 6263 4541 
L 4544 4541 
L 4544 3978 
L 5981 3978 
L 5981 1091 
L 5531 1091 
L 5531 1347 
L 4491 1347 
Q 4403 691 4172 300 
Q 4997 -166 6338 -297 
Q 6181 -528 6025 -797 
Q 4713 -591 3875 -63 
Q 3347 -541 2094 -884 
Q 1981 -691 1825 -459 
Q 2991 -169 3472 231 
Q 3050 594 2794 1066 
L 3188 1259 
Q 3403 872 3763 578 
Q 3934 866 4013 1347 
L 2656 1347 
L 2656 3978 
z
M 31 1672 
Q 731 2797 1059 4291 
L 231 4291 
L 231 4716 
L 2413 4716 
L 2413 4291 
L 1534 4291 
Q 1372 3563 1134 2922 
L 2200 2922 
L 2200 203 
L 1119 203 
L 1119 -284 
L 694 -284 
L 694 1919 
Q 531 1609 350 1328 
Q 231 1466 31 1672 
z
M 1775 616 
L 1775 2509 
L 1119 2509 
L 1119 616 
L 1775 616 
z
M 4528 1753 
L 5531 1753 
L 5531 2472 
L 4544 2472 
Q 4544 2234 4528 1753 
z
M 5531 3572 
L 4544 3572 
L 4544 2866 
L 5531 2866 
L 5531 3572 
z
M 4059 1753 
Q 4081 2013 4081 2472 
L 3106 2472 
L 3106 1753 
L 4059 1753 
z
M 3106 2866 
L 4081 2866 
L 4081 3572 
L 3106 3572 
L 3106 2866 
z
" transform="scale(0.015625)"/>
        <path id="MicrosoftYaHei-4ef6" d="M 1950 1816 
L 4119 1816 
L 4119 3397 
L 2928 3397 
Q 2675 2725 2375 2197 
Q 2194 2372 1963 2528 
Q 2556 3572 2838 4859 
L 3344 4716 
Q 3222 4250 3081 3834 
L 4119 3834 
L 4119 5284 
L 4619 5284 
L 4619 3834 
L 6113 3834 
L 6113 3397 
L 4619 3397 
L 4619 1816 
L 6319 1816 
L 6319 1378 
L 4619 1378 
L 4619 -809 
L 4119 -809 
L 4119 1378 
L 1950 1378 
L 1950 1816 
z
M 69 2191 
Q 931 3466 1456 5278 
L 1969 5128 
Q 1738 4400 1469 3763 
L 1469 -816 
L 975 -816 
L 975 2731 
Q 656 2141 294 1647 
Q 200 1916 69 2191 
z
" transform="scale(0.015625)"/>
       </defs>
       <use xlink:href="#MicrosoftYaHei-7535"/>
       <use xlink:href="#MicrosoftYaHei-8111" x="100"/>
       <use xlink:href="#MicrosoftYaHei-786c" x="200"/>
       <use xlink:href="#MicrosoftYaHei-4ef6" x="300"/>
      </g>
     </g>
    </g>
    <g id="ytick_3">
     <g id="line2d_15">
      <path d="M 81.775625 255.511 
L 639.775625 255.511 
" clip-path="url(#pf0fe06d71f)" style="fill: none; stroke: #ffffff; stroke-width: 0.8; stroke-linecap: square"/>
     </g>
     <g id="line2d_16">
      <g>
       <use xlink:href="#md911ddbfc9" x="81.775625" y="255.511" style="fill: #555555; stroke: #555555; stroke-width: 0.8"/>
      </g>
     </g>
     <g id="text_9">
      <!-- 卧室家具 -->
      <g style="fill: #555555" transform="translate(34.775625 259.507875) scale(0.1 -0.1)">
       <defs>
        <path id="MicrosoftYaHei-5367" d="M 3619 -178 
L 3619 -616 
L 388 -616 
L 388 4941 
L 3531 4941 
L 3531 4503 
L 2375 4503 
L 2375 3278 
L 3425 3278 
L 3425 991 
L 2975 991 
L 2975 1222 
L 2375 1222 
L 2375 -178 
L 3619 -178 
z
M 4113 -809 
L 4113 5197 
L 4588 5197 
L 4588 3147 
L 4894 3416 
Q 5619 2709 6313 1959 
L 5913 1572 
Q 5213 2422 4588 3053 
L 4588 -809 
L 4113 -809 
z
M 2975 2853 
L 863 2853 
L 863 1647 
L 2975 1647 
L 2975 2853 
z
M 863 -178 
L 1925 -178 
L 1925 1222 
L 863 1222 
L 863 -178 
z
M 863 3278 
L 1925 3278 
L 1925 4503 
L 863 4503 
L 863 3278 
z
" transform="scale(0.015625)"/>
        <path id="MicrosoftYaHei-5ba4" d="M 131 -147 
L 2950 -147 
L 2950 584 
L 706 584 
L 706 1016 
L 2950 1016 
L 2950 1738 
Q 2291 1709 1675 1678 
Q 1363 1659 1050 1597 
L 838 2116 
Q 1075 2209 1344 2384 
Q 1784 2688 2153 2997 
L 1019 2997 
L 1019 3428 
L 5431 3428 
L 5431 2997 
L 2888 2997 
Q 2388 2591 1738 2134 
Q 3094 2181 4444 2234 
Q 4244 2416 4025 2603 
L 4369 2916 
Q 5156 2297 5738 1753 
L 5331 1372 
Q 5134 1581 4909 1803 
Q 4159 1784 3456 1756 
L 3456 1016 
L 5706 1016 
L 5706 584 
L 3456 584 
L 3456 -147 
L 6281 -147 
L 6281 -578 
L 131 -578 
L 131 -147 
z
M 356 4503 
L 3094 4503 
Q 2919 4841 2700 5172 
L 3144 5384 
Q 3375 5041 3594 4653 
L 3284 4503 
L 6069 4503 
L 6069 3372 
L 5569 3372 
L 5569 4072 
L 856 4072 
L 856 3372 
L 356 3372 
L 356 4503 
z
" transform="scale(0.015625)"/>
       </defs>
       <use xlink:href="#MicrosoftYaHei-5367"/>
       <use xlink:href="#MicrosoftYaHei-5ba4" x="100"/>
       <use xlink:href="#MicrosoftYaHei-5bb6" x="200"/>
       <use xlink:href="#MicrosoftYaHei-5177" x="300"/>
      </g>
     </g>
    </g>
    <g id="ytick_4">
     <g id="line2d_17">
      <path d="M 81.775625 215.191 
L 639.775625 215.191 
" clip-path="url(#pf0fe06d71f)" style="fill: none; stroke: #ffffff; stroke-width: 0.8; stroke-linecap: square"/>
     </g>
     <g id="line2d_18">
      <g>
       <use xlink:href="#md911ddbfc9" x="81.775625" y="215.191" style="fill: #555555; stroke: #555555; stroke-width: 0.8"/>
      </g>
     </g>
     <g id="text_10">
      <!-- 厨房电器 -->
      <g style="fill: #555555" transform="translate(34.775625 219.187875) scale(0.1 -0.1)">
       <defs>
        <path id="MicrosoftYaHei-53a8" d="M 1069 2772 
Q 1075 1178 950 547 
Q 844 -116 419 -834 
Q 263 -641 56 -403 
Q 388 128 488 741 
Q 600 1334 594 2659 
L 594 4916 
L 6225 4916 
L 6225 4478 
L 1069 4478 
L 1069 2772 
z
M 3950 3191 
L 5269 3191 
L 5269 4241 
L 5731 4241 
L 5731 3191 
L 6250 3191 
L 6250 2753 
L 5731 2753 
L 5731 134 
Q 5731 -797 4900 -803 
Q 4613 -809 4113 -797 
Q 4081 -566 4013 -272 
Q 4500 -322 4806 -322 
Q 5269 -328 5269 166 
L 5269 2753 
L 3950 2753 
L 3950 3191 
z
M 1575 3041 
L 3650 3041 
L 3650 1266 
L 3213 1266 
L 3213 1366 
L 2013 1366 
L 2013 1228 
L 1575 1228 
L 1575 3041 
z
M 1106 -78 
Q 1844 -28 2744 47 
Q 3006 628 3194 1134 
L 3688 978 
Q 3456 541 3213 97 
Q 3581 128 3969 172 
Q 3919 -122 3881 -291 
Q 2388 -416 1169 -553 
L 1106 -78 
z
M 1375 3959 
L 3900 3959 
L 3900 3534 
L 1375 3534 
L 1375 3959 
z
M 3213 2616 
L 2013 2616 
L 2013 1791 
L 3213 1791 
L 3213 2616 
z
M 3950 2134 
L 4356 2272 
Q 4656 1609 4919 847 
L 4444 697 
Q 4200 1478 3950 2134 
z
M 1594 947 
L 2006 1109 
Q 2200 722 2375 291 
L 1938 97 
Q 1781 572 1594 947 
z
" transform="scale(0.015625)"/>
        <path id="MicrosoftYaHei-623f" d="M 775 4659 
L 3188 4659 
Q 3041 4891 2888 5109 
L 3313 5353 
Q 3559 5028 3772 4659 
L 5850 4659 
L 5850 2953 
L 5363 2953 
L 5363 3147 
L 1269 3147 
L 1269 2172 
Q 1269 197 394 -828 
Q 231 -628 56 -403 
Q 775 453 775 2228 
L 775 4659 
z
M 1463 2472 
L 3613 2472 
Q 3488 2663 3331 2891 
L 3750 3122 
Q 3991 2791 4178 2472 
L 6250 2472 
L 6250 2047 
L 3063 2047 
Q 3047 1706 3013 1422 
L 5606 1422 
Q 5569 753 5513 178 
Q 5431 -684 4569 -684 
Q 4100 -684 3588 -672 
Q 3550 -409 3488 -134 
Q 4081 -197 4513 -197 
Q 4981 -197 5031 247 
Q 5069 566 5094 1003 
L 2944 1003 
Q 2750 -147 1538 -872 
Q 1419 -703 1219 -453 
Q 2019 47 2294 616 
Q 2544 1097 2575 2047 
L 1463 2047 
L 1463 2472 
z
M 5363 4234 
L 1269 4234 
L 1269 3572 
L 5363 3572 
L 5363 4234 
z
" transform="scale(0.015625)"/>
        <path id="MicrosoftYaHei-5668" d="M 300 2691 
L 2825 2691 
Q 2922 2925 2950 3234 
L 3400 3172 
Q 3363 2909 3291 2691 
L 4653 2691 
Q 4403 2872 4125 3047 
L 4381 3328 
Q 4794 3084 5125 2841 
L 4984 2691 
L 6150 2691 
L 6150 2278 
L 3738 2278 
Q 4459 1572 6300 1609 
Q 6150 1353 6044 1128 
Q 5878 1141 5725 1156 
L 5725 -753 
L 5288 -753 
L 5288 -409 
L 3950 -409 
L 3950 -747 
L 3513 -747 
L 3513 1184 
L 5503 1184 
Q 3716 1425 3219 2278 
L 3106 2278 
Q 2756 1534 838 1184 
L 2838 1184 
L 2838 -747 
L 2400 -747 
L 2400 -409 
L 1081 -409 
L 1081 -753 
L 644 -753 
L 644 1147 
Q 478 1116 300 1084 
Q 206 1272 56 1528 
Q 2144 1797 2563 2278 
L 300 2278 
L 300 2691 
z
M 3506 4966 
L 5719 4966 
L 5719 3122 
L 5281 3122 
L 5281 3341 
L 3944 3341 
L 3944 3147 
L 3506 3147 
L 3506 4966 
z
M 638 4966 
L 2831 4966 
L 2831 3147 
L 2394 3147 
L 2394 3341 
L 1075 3341 
L 1075 3084 
L 638 3084 
L 638 4966 
z
M 5281 4578 
L 3944 4578 
L 3944 3728 
L 5281 3728 
L 5281 4578 
z
M 2394 4578 
L 1075 4578 
L 1075 3728 
L 2394 3728 
L 2394 4578 
z
M 5288 797 
L 3950 797 
L 3950 -22 
L 5288 -22 
L 5288 797 
z
M 2400 797 
L 1081 797 
L 1081 -22 
L 2400 -22 
L 2400 797 
z
" transform="scale(0.015625)"/>
       </defs>
       <use xlink:href="#MicrosoftYaHei-53a8"/>
       <use xlink:href="#MicrosoftYaHei-623f" x="100"/>
       <use xlink:href="#MicrosoftYaHei-7535" x="200"/>
       <use xlink:href="#MicrosoftYaHei-5668" x="300"/>
      </g>
     </g>
    </g>
    <g id="ytick_5">
     <g id="line2d_19">
      <path d="M 81.775625 174.871 
L 639.775625 174.871 
" clip-path="url(#pf0fe06d71f)" style="fill: none; stroke: #ffffff; stroke-width: 0.8; stroke-linecap: square"/>
     </g>
     <g id="line2d_20">
      <g>
       <use xlink:href="#md911ddbfc9" x="81.775625" y="174.871" style="fill: #555555; stroke: #555555; stroke-width: 0.8"/>
      </g>
     </g>
     <g id="text_11">
      <!-- 家装饰品 -->
      <g style="fill: #555555" transform="translate(34.775625 178.867875) scale(0.1 -0.1)">
       <defs>
        <path id="MicrosoftYaHei-88c5" d="M 3700 241 
Q 3694 -34 3700 -253 
Q 2869 -491 2375 -666 
Q 2188 -734 1925 -872 
L 1650 -491 
Q 1800 -366 1800 -59 
L 1800 425 
Q 1163 53 363 -247 
Q 244 -22 81 197 
Q 1750 734 2716 1634 
L 163 1634 
L 163 2072 
L 3091 2072 
Q 2941 2313 2794 2522 
L 3194 2766 
Q 3406 2453 3588 2191 
L 3388 2072 
L 6275 2072 
L 6275 1634 
L 3428 1634 
Q 3688 1125 4113 756 
Q 4809 1091 5488 1466 
L 5750 1009 
Q 5128 763 4484 481 
Q 5213 19 6306 -141 
Q 6119 -391 5963 -609 
Q 3938 -213 3069 1381 
Q 2713 1028 2263 716 
L 2263 -197 
Q 3006 9 3700 241 
z
M 2825 3228 
L 4181 3228 
L 4181 4059 
L 2606 4059 
L 2606 4491 
L 4181 4491 
L 4181 5334 
L 4650 5334 
L 4650 4491 
L 6263 4491 
L 6263 4059 
L 4650 4059 
L 4650 3228 
L 6050 3228 
L 6050 2797 
L 2825 2797 
L 2825 3228 
z
M 1863 5347 
L 2325 5347 
L 2325 2466 
L 1863 2466 
L 1863 3425 
Q 1188 3038 450 2603 
Q 381 2747 194 3066 
Q 1084 3519 1863 3963 
L 1863 5347 
z
M 363 4728 
L 694 5053 
Q 1263 4584 1550 4297 
L 1175 3934 
Q 725 4416 363 4728 
z
" transform="scale(0.015625)"/>
        <path id="MicrosoftYaHei-9970" d="M 3169 -109 
L 2706 -109 
L 2706 2822 
L 4106 2822 
L 4106 3722 
L 4569 3722 
L 4569 2822 
L 6094 2822 
L 6094 609 
Q 6094 -84 5394 -84 
Q 5144 -84 4806 -72 
Q 4775 122 4713 397 
Q 5056 359 5275 359 
Q 5631 359 5631 697 
L 5631 2384 
L 4569 2384 
L 4569 -847 
L 4106 -847 
L 4106 2384 
L 3169 2384 
L 3169 -109 
z
M 2331 3284 
Q 2975 4303 3256 5328 
L 3738 5216 
Q 3613 4841 3475 4484 
L 6300 4484 
L 6300 4047 
L 3288 4047 
Q 3056 3522 2775 3028 
Q 2563 3159 2331 3284 
z
M 44 2741 
Q 656 3884 981 5316 
L 1456 5222 
Q 1344 4778 1213 4359 
L 2394 4359 
L 2394 3959 
L 1950 2922 
Q 1763 3003 1550 3084 
L 1925 3959 
L 1075 3959 
Q 806 3191 469 2522 
Q 275 2634 44 2741 
z
M 2269 672 
Q 2275 372 2300 153 
Q 1813 -122 1288 -441 
Q 1175 -509 1025 -653 
L 694 -222 
Q 894 -28 894 241 
L 894 3091 
L 1350 3091 
L 1350 116 
Q 1763 359 2269 672 
z
" transform="scale(0.015625)"/>
        <path id="MicrosoftYaHei-54c1" d="M 1044 5047 
L 5356 5047 
L 5356 2572 
L 4856 2572 
L 4856 2772 
L 1544 2772 
L 1544 2572 
L 1044 2572 
L 1044 5047 
z
M 3588 2059 
L 5975 2059 
L 5975 -828 
L 5500 -828 
L 5500 -403 
L 4063 -403 
L 4063 -828 
L 3588 -828 
L 3588 2059 
z
M 431 2059 
L 2813 2059 
L 2813 -828 
L 2338 -828 
L 2338 -409 
L 906 -409 
L 906 -828 
L 431 -828 
L 431 2059 
z
M 4856 4609 
L 1544 4609 
L 1544 3209 
L 4856 3209 
L 4856 4609 
z
M 5500 1622 
L 4063 1622 
L 4063 3 
L 5500 3 
L 5500 1622 
z
M 2338 1622 
L 906 1622 
L 906 16 
L 2338 16 
L 2338 1622 
z
" transform="scale(0.015625)"/>
       </defs>
       <use xlink:href="#MicrosoftYaHei-5bb6"/>
       <use xlink:href="#MicrosoftYaHei-88c5" x="100"/>
       <use xlink:href="#MicrosoftYaHei-9970" x="200"/>
       <use xlink:href="#MicrosoftYaHei-54c1" x="300"/>
      </g>
     </g>
    </g>
    <g id="ytick_6">
     <g id="line2d_21">
      <path d="M 81.775625 134.551 
L 639.775625 134.551 
" clip-path="url(#pf0fe06d71f)" style="fill: none; stroke: #ffffff; stroke-width: 0.8; stroke-linecap: square"/>
     </g>
     <g id="line2d_22">
      <g>
       <use xlink:href="#md911ddbfc9" x="81.775625" y="134.551" style="fill: #555555; stroke: #555555; stroke-width: 0.8"/>
      </g>
     </g>
     <g id="text_12">
      <!-- 浴室用品 -->
      <g style="fill: #555555" transform="translate(34.775625 138.547875) scale(0.1 -0.1)">
       <defs>
        <path id="MicrosoftYaHei-6d74" d="M 4388 4016 
L 4238 3778 
Q 4913 2603 6319 1997 
Q 6163 1803 5975 1559 
Q 5800 1641 5644 1728 
L 5644 -847 
L 5169 -847 
L 5169 -428 
L 2781 -428 
L 2781 -853 
L 2306 -853 
L 2306 1703 
Q 2106 1578 1888 1453 
Q 1681 1716 1538 1884 
Q 3206 2709 3869 4147 
L 4388 4016 
z
M 5169 1303 
L 2781 1303 
L 2781 9 
L 5169 9 
L 5169 1303 
z
M 3975 3341 
Q 3400 2434 2350 1741 
L 5625 1741 
Q 4594 2334 3975 3341 
z
M 1075 1772 
Q 1375 1641 1581 1578 
Q 1338 647 900 -828 
L 356 -634 
Q 769 459 1075 1772 
z
M 3281 5172 
L 3669 4816 
Q 2863 3978 2138 3303 
Q 1944 3534 1781 3691 
Q 2550 4322 3281 5172 
z
M 4313 4809 
L 4631 5159 
Q 5469 4503 6231 3884 
L 5900 3472 
Q 5163 4122 4313 4809 
z
M 694 5134 
Q 1288 4728 1894 4234 
Q 1694 4009 1538 3841 
Q 1013 4303 394 4778 
L 694 5134 
z
M 400 3491 
Q 975 3072 1488 2641 
Q 1294 2434 1138 2247 
Q 588 2747 88 3134 
L 400 3491 
z
" transform="scale(0.015625)"/>
        <path id="MicrosoftYaHei-7528" d="M 3088 -734 
L 3088 1253 
L 1269 1253 
Q 1163 -47 513 -903 
Q 350 -697 144 -472 
Q 550 103 694 803 
Q 831 1478 831 2716 
L 831 4947 
L 5925 4947 
L 5925 -22 
Q 5925 -766 5219 -766 
Q 4788 -766 4250 -747 
Q 4219 -541 4156 -228 
Q 4700 -266 5038 -266 
Q 5425 -266 5425 103 
L 5425 1253 
L 3588 1253 
L 3588 -734 
L 3088 -734 
z
M 3588 1703 
L 5425 1703 
L 5425 2872 
L 3588 2872 
L 3588 1703 
z
M 5425 4484 
L 3588 4484 
L 3588 3322 
L 5425 3322 
L 5425 4484 
z
M 1303 1703 
L 3088 1703 
L 3088 2872 
L 1331 2872 
Q 1350 2266 1303 1703 
z
M 1331 4484 
L 1331 3322 
L 3088 3322 
L 3088 4484 
L 1331 4484 
z
" transform="scale(0.015625)"/>
       </defs>
       <use xlink:href="#MicrosoftYaHei-6d74"/>
       <use xlink:href="#MicrosoftYaHei-5ba4" x="100"/>
       <use xlink:href="#MicrosoftYaHei-7528" x="200"/>
       <use xlink:href="#MicrosoftYaHei-54c1" x="300"/>
      </g>
     </g>
    </g>
    <g id="ytick_7">
     <g id="line2d_23">
      <path d="M 81.775625 94.231 
L 639.775625 94.231 
" clip-path="url(#pf0fe06d71f)" style="fill: none; stroke: #ffffff; stroke-width: 0.8; stroke-linecap: square"/>
     </g>
     <g id="line2d_24">
      <g>
       <use xlink:href="#md911ddbfc9" x="81.775625" y="94.231" style="fill: #555555; stroke: #555555; stroke-width: 0.8"/>
      </g>
     </g>
     <g id="text_13">
      <!-- 汽车配件 -->
      <g style="fill: #555555" transform="translate(34.775625 98.227875) scale(0.1 -0.1)">
       <defs>
        <path id="MicrosoftYaHei-6c7d" d="M 2025 2091 
L 2025 2528 
L 5256 2528 
Q 5219 384 5506 -78 
Q 5681 -316 5750 -34 
Q 5800 309 5844 1078 
Q 6038 997 6319 909 
Q 6244 166 6181 -141 
Q 6056 -766 5663 -766 
Q 5306 -766 5056 -303 
Q 4744 278 4769 2091 
L 2025 2091 
z
M 1675 3284 
Q 2431 4197 2863 5347 
L 3331 5191 
Q 3219 4909 3094 4641 
L 6106 4641 
L 6106 4203 
L 2875 4203 
Q 2509 3513 2038 2916 
Q 1888 3103 1675 3284 
z
M 1031 1759 
Q 1294 1616 1550 1516 
Q 1181 334 831 -772 
L 288 -522 
Q 713 503 1031 1759 
z
M 2700 3591 
L 5638 3591 
L 5638 3159 
L 2700 3159 
L 2700 3591 
z
M 350 3609 
Q 1025 3191 1544 2809 
L 1213 2366 
Q 650 2834 63 3216 
L 350 3609 
z
M 663 5241 
Q 1250 4834 1756 4428 
L 1419 4009 
Q 844 4516 363 4872 
L 663 5241 
z
" transform="scale(0.015625)"/>
        <path id="MicrosoftYaHei-8f66" d="M 163 922 
L 3206 922 
L 3206 1991 
L 913 1991 
L 913 2447 
Q 1334 3200 1688 3909 
L 400 3909 
L 400 4372 
L 1913 4372 
Q 2156 4878 2363 5359 
L 2831 5216 
Q 2625 4772 2434 4372 
L 5950 4372 
L 5950 3909 
L 2209 3909 
Q 1797 3063 1456 2441 
L 3206 2441 
L 3206 3647 
L 3694 3647 
L 3694 2441 
L 5500 2441 
L 5500 1991 
L 3694 1991 
L 3694 922 
L 6188 922 
L 6188 459 
L 3694 459 
L 3694 -853 
L 3206 -853 
L 3206 459 
L 163 459 
L 163 922 
z
" transform="scale(0.015625)"/>
        <path id="MicrosoftYaHei-914d" d="M 388 3697 
L 1244 3697 
L 1244 4516 
L 194 4516 
L 194 4928 
L 3506 4928 
L 3506 4516 
L 2469 4516 
L 2469 3697 
L 3375 3697 
L 3375 -766 
L 2956 -766 
L 2956 -366 
L 806 -366 
L 806 -772 
L 388 -772 
L 388 3697 
z
M 3831 2916 
L 5488 2916 
L 5488 4541 
L 3725 4541 
L 3725 4978 
L 5938 4978 
L 5938 2234 
L 5488 2234 
L 5488 2478 
L 4281 2478 
L 4281 316 
Q 4281 -178 4706 -178 
L 5300 -178 
Q 5669 -178 5719 191 
Q 5800 609 5831 1203 
Q 6006 1116 6300 997 
Q 6256 491 6169 34 
Q 6063 -628 5381 -628 
L 4575 -628 
Q 3831 -628 3831 253 
L 3831 2916 
z
M 2069 2291 
L 2069 3297 
L 1644 3297 
L 1644 3047 
Q 1644 2047 1125 1391 
Q 975 1538 806 1697 
L 806 1178 
L 2956 1178 
L 2956 1778 
L 2513 1778 
Q 2069 1778 2069 2291 
z
M 806 34 
L 2956 34 
L 2956 784 
L 806 784 
L 806 34 
z
M 2956 3297 
L 2469 3297 
L 2469 2428 
Q 2456 2147 2700 2166 
L 2956 2166 
L 2956 3297 
z
M 806 1738 
Q 1244 2234 1244 3078 
L 1244 3297 
L 806 3297 
L 806 1738 
z
M 1644 3697 
L 2069 3697 
L 2069 4516 
L 1644 4516 
L 1644 3697 
z
" transform="scale(0.015625)"/>
       </defs>
       <use xlink:href="#MicrosoftYaHei-6c7d"/>
       <use xlink:href="#MicrosoftYaHei-8f66" x="100"/>
       <use xlink:href="#MicrosoftYaHei-914d" x="200"/>
       <use xlink:href="#MicrosoftYaHei-4ef6" x="300"/>
      </g>
     </g>
    </g>
    <g id="ytick_8">
     <g id="line2d_25">
      <path d="M 81.775625 53.911 
L 639.775625 53.911 
" clip-path="url(#pf0fe06d71f)" style="fill: none; stroke: #ffffff; stroke-width: 0.8; stroke-linecap: square"/>
     </g>
     <g id="line2d_26">
      <g>
       <use xlink:href="#md911ddbfc9" x="81.775625" y="53.911" style="fill: #555555; stroke: #555555; stroke-width: 0.8"/>
      </g>
     </g>
     <g id="text_14">
      <!-- 床品件套 -->
      <g style="fill: #555555" transform="translate(34.775625 57.907875) scale(0.1 -0.1)">
       <defs>
        <path id="MicrosoftYaHei-5e8a" d="M 1513 2928 
L 3475 2928 
L 3475 3859 
L 3963 3859 
L 3963 2928 
L 5975 2928 
L 5975 2478 
L 4341 2478 
Q 4991 1197 6313 378 
Q 6138 172 5931 -78 
Q 4619 972 3963 2469 
L 3963 -797 
L 3475 -797 
L 3475 2478 
L 3459 2478 
Q 2888 1047 1519 -134 
Q 1331 59 1125 247 
Q 2459 1250 3078 2478 
L 1513 2478 
L 1513 2928 
z
M 2900 5097 
L 3313 5353 
Q 3600 5003 3844 4653 
L 3588 4484 
L 6175 4484 
L 6175 4022 
L 1288 4022 
L 1288 2178 
Q 1288 291 463 -803 
Q 319 -622 88 -384 
Q 800 528 800 2266 
L 800 4484 
L 3334 4484 
Q 3144 4784 2900 5097 
z
" transform="scale(0.015625)"/>
        <path id="MicrosoftYaHei-5957" d="M 4494 603 
Q 5181 -22 5675 -541 
L 5275 -859 
Q 5084 -634 4894 -422 
Q 3122 -478 1550 -572 
Q 1381 -578 981 -622 
L 819 -153 
Q 1081 -72 1313 84 
Q 1588 291 1944 622 
L 225 622 
L 225 1034 
L 1450 1034 
L 1450 3175 
Q 944 2884 319 2603 
Q 200 2797 25 3034 
Q 1438 3528 2100 4209 
L 313 4209 
L 313 4622 
L 2450 4622 
Q 2694 4966 2831 5359 
L 3331 5247 
Q 3200 4916 3022 4622 
L 6100 4622 
L 6100 4209 
L 4344 4209 
Q 5144 3406 6375 3216 
Q 6175 2934 6044 2709 
Q 5256 2953 4675 3356 
L 4675 3097 
L 1900 3097 
L 1900 2678 
L 5150 2678 
L 5150 2278 
L 1900 2278 
L 1900 1859 
L 5188 1859 
L 5188 1459 
L 1900 1459 
L 1900 1034 
L 6188 1034 
L 6188 622 
L 2613 622 
Q 2134 200 1681 -134 
Q 3313 -100 4534 -38 
Q 4344 153 4156 334 
L 4494 603 
z
M 1963 3497 
L 4488 3497 
Q 4091 3809 3800 4209 
L 2728 4209 
Q 2403 3809 1963 3497 
z
" transform="scale(0.015625)"/>
       </defs>
       <use xlink:href="#MicrosoftYaHei-5e8a"/>
       <use xlink:href="#MicrosoftYaHei-54c1" x="100"/>
       <use xlink:href="#MicrosoftYaHei-4ef6" x="200"/>
       <use xlink:href="#MicrosoftYaHei-5957" x="300"/>
      </g>
     </g>
    </g>
    <g id="text_15">
     <!-- 商品品类 -->
     <g style="fill: #555555" transform="translate(16.7925 219.031) rotate(-90) scale(0.12 -0.12)">
      <defs>
       <path id="MicrosoftYaHei-5546" d="M 600 3309 
L 2119 3309 
Q 1903 3625 1650 3934 
L 2031 4191 
Q 2331 3841 2575 3541 
L 2238 3309 
L 3656 3309 
Q 3972 3716 4238 4166 
L 4713 3891 
Q 4416 3538 4213 3309 
L 5769 3309 
L 5769 34 
Q 5769 -753 5050 -759 
Q 4663 -766 4175 -753 
Q 4125 -391 4081 -228 
Q 4575 -278 4894 -278 
Q 5300 -278 5300 172 
L 5300 2878 
L 1069 2878 
L 1069 -834 
L 600 -834 
L 600 3309 
z
M 1950 -216 
L 1950 1797 
L 4456 1797 
L 4456 116 
L 2400 116 
L 2400 -216 
L 1950 -216 
z
M 144 4647 
L 2997 4647 
Q 2878 4869 2706 5141 
L 3188 5359 
Q 3375 5038 3581 4647 
L 6275 4647 
L 6275 4203 
L 144 4203 
L 144 4647 
z
M 4006 516 
L 4006 1397 
L 2400 1397 
L 2400 516 
L 4006 516 
z
M 2431 2809 
L 2769 2484 
Q 2038 1859 1400 1384 
Q 1213 1641 1106 1753 
Q 1794 2209 2431 2809 
z
M 3531 2466 
L 3806 2809 
Q 4731 2228 5206 1878 
L 4894 1484 
Q 4275 1984 3531 2466 
z
" transform="scale(0.015625)"/>
       <path id="MicrosoftYaHei-7c7b" d="M 6338 -359 
Q 6213 -503 6006 -853 
Q 3975 -459 3200 884 
Q 2644 -497 400 -897 
Q 288 -684 131 -434 
Q 2244 -147 2744 1047 
L 275 1047 
L 275 1484 
L 2875 1484 
Q 2925 1691 2956 1978 
L 3456 1978 
Q 3413 1697 3369 1484 
L 6125 1484 
L 6125 1047 
L 3619 1047 
Q 4450 -159 6338 -359 
z
M 325 3741 
L 2975 3741 
L 2975 5303 
L 3450 5303 
L 3450 3741 
L 6075 3741 
L 6075 3322 
L 3450 3322 
L 3450 2953 
L 3625 3191 
Q 5325 2528 6231 2128 
L 6013 1722 
Q 4956 2266 3450 2847 
L 3450 2197 
L 2975 2197 
L 2975 3241 
Q 1863 2191 450 1741 
Q 319 1934 144 2153 
Q 1569 2553 2538 3322 
L 325 3322 
L 325 3741 
z
M 5550 4784 
Q 5163 4459 4394 3891 
L 4069 4222 
Q 4569 4578 5194 5122 
L 5550 4784 
z
M 900 4791 
L 1206 5122 
Q 1875 4647 2306 4266 
L 1969 3897 
Q 1581 4284 900 4791 
z
" transform="scale(0.015625)"/>
      </defs>
      <use xlink:href="#MicrosoftYaHei-5546"/>
      <use xlink:href="#MicrosoftYaHei-54c1" x="100"/>
      <use xlink:href="#MicrosoftYaHei-54c1" x="200"/>
      <use xlink:href="#MicrosoftYaHei-7c7b" x="300"/>
     </g>
    </g>
   </g>
   <g id="patch_3">
    <path d="M 81.775625 346.231 
L 147.721518 346.231 
L 147.721518 326.071 
L 81.775625 326.071 
z
" clip-path="url(#pf0fe06d71f)" style="fill: #4169e1"/>
   </g>
   <g id="patch_4">
    <path d="M 81.775625 305.911 
L 389.000226 305.911 
L 389.000226 285.751 
L 81.775625 285.751 
z
" clip-path="url(#pf0fe06d71f)" style="fill: #4169e1"/>
   </g>
   <g id="patch_5">
    <path d="M 81.775625 265.591 
L 414.52183 265.591 
L 414.52183 245.431 
L 81.775625 245.431 
z
" clip-path="url(#pf0fe06d71f)" style="fill: #4169e1"/>
   </g>
   <g id="patch_6">
    <path d="M 81.775625 225.271 
L 460.919261 225.271 
L 460.919261 205.111 
L 81.775625 205.111 
z
" clip-path="url(#pf0fe06d71f)" style="fill: #4169e1"/>
   </g>
   <g id="patch_7">
    <path d="M 81.775625 184.951 
L 461.1606 184.951 
L 461.1606 164.791 
L 81.775625 164.791 
z
" clip-path="url(#pf0fe06d71f)" style="fill: #4169e1"/>
   </g>
   <g id="patch_8">
    <path d="M 81.775625 144.631 
L 509.0664 144.631 
L 509.0664 124.471 
L 81.775625 124.471 
z
" clip-path="url(#pf0fe06d71f)" style="fill: #4169e1"/>
   </g>
   <g id="patch_9">
    <path d="M 81.775625 104.311 
L 526.56348 104.311 
L 526.56348 84.151 
L 81.775625 84.151 
z
" clip-path="url(#pf0fe06d71f)" style="fill: #4169e1"/>
   </g>
   <g id="patch_10">
    <path d="M 81.775625 63.991 
L 613.204196 63.991 
L 613.204196 43.831 
L 81.775625 43.831 
z
" clip-path="url(#pf0fe06d71f)" style="fill: #4169e1"/>
   </g>
   <g id="patch_11">
    <path d="M 81.775625 361.351 
L 81.775625 28.711 
" style="fill: none; stroke: #ffffff; stroke-linejoin: miter; stroke-linecap: square"/>
   </g>
   <g id="patch_12">
    <path d="M 639.775625 361.351 
L 639.775625 28.711 
" style="fill: none; stroke: #ffffff; stroke-linejoin: miter; stroke-linecap: square"/>
   </g>
   <g id="patch_13">
    <path d="M 81.775625 361.351 
L 639.775625 361.351 
" style="fill: none; stroke: #ffffff; stroke-linejoin: miter; stroke-linecap: square"/>
   </g>
   <g id="patch_14">
    <path d="M 81.775625 28.711 
L 639.775625 28.711 
" style="fill: none; stroke: #ffffff; stroke-linejoin: miter; stroke-linecap: square"/>
   </g>
   <g id="text_16">
    <!-- 1093 -->
    <g transform="translate(147.721518 338.904906) scale(0.1 -0.1)">
     <defs>
      <path id="MicrosoftYaHei-31" d="M 1781 0 
L 1781 4141 
Q 1638 3997 1295 3819 
Q 953 3641 663 3569 
L 663 4169 
Q 1047 4275 1484 4508 
Q 1922 4741 2156 4947 
L 2388 4947 
L 2388 0 
L 1781 0 
z
" transform="scale(0.015625)"/>
      <path id="MicrosoftYaHei-39" d="M 578 656 
Q 978 425 1441 425 
Q 2091 425 2448 937 
Q 2806 1450 2806 2394 
Q 2800 2388 2794 2394 
Q 2475 1788 1722 1788 
Q 1113 1788 713 2206 
Q 313 2625 313 3294 
Q 313 4006 750 4464 
Q 1188 4922 1884 4922 
Q 2606 4922 3012 4355 
Q 3419 3788 3419 2703 
Q 3419 1363 2894 641 
Q 2369 -81 1441 -81 
Q 931 -81 578 84 
L 578 656 
z
M 931 3372 
Q 931 2884 1181 2598 
Q 1431 2313 1872 2313 
Q 2253 2313 2512 2573 
Q 2772 2834 2772 3206 
Q 2772 3728 2514 4070 
Q 2256 4413 1834 4413 
Q 1444 4413 1187 4116 
Q 931 3819 931 3372 
z
" transform="scale(0.015625)"/>
      <path id="MicrosoftYaHei-33" d="M 447 809 
Q 944 425 1569 425 
Q 2069 425 2361 670 
Q 2653 916 2653 1328 
Q 2653 2247 1338 2247 
L 934 2247 
L 934 2753 
L 1319 2753 
Q 2484 2753 2484 3616 
Q 2484 4413 1594 4413 
Q 1084 4413 634 4069 
L 634 4647 
Q 1109 4922 1744 4922 
Q 2363 4922 2738 4598 
Q 3113 4275 3113 3759 
Q 3113 2809 2144 2538 
L 2144 2525 
Q 2669 2469 2973 2155 
Q 3278 1841 3278 1372 
Q 3278 719 2808 319 
Q 2338 -81 1556 -81 
Q 869 -81 447 175 
L 447 809 
z
" transform="scale(0.015625)"/>
     </defs>
     <use xlink:href="#MicrosoftYaHei-31"/>
     <use xlink:href="#MicrosoftYaHei-30" x="58.642578"/>
     <use xlink:href="#MicrosoftYaHei-39" x="117.285156"/>
     <use xlink:href="#MicrosoftYaHei-33" x="175.927734"/>
    </g>
   </g>
   <g id="text_17">
    <!-- 5092 -->
    <g transform="translate(389.000226 298.584906) scale(0.1 -0.1)">
     <defs>
      <path id="MicrosoftYaHei-35" d="M 3294 1494 
Q 3294 784 2823 350 
Q 2353 -84 1559 -84 
Q 878 -84 544 119 
L 544 744 
Q 1034 425 1544 425 
Q 2050 425 2361 704 
Q 2672 984 2672 1447 
Q 2672 1909 2348 2167 
Q 2025 2425 1434 2425 
Q 978 2425 613 2384 
L 791 4841 
L 3053 4841 
L 3053 4303 
L 1306 4303 
L 1206 2931 
L 1647 2950 
Q 2416 2950 2855 2567 
Q 3294 2184 3294 1494 
z
" transform="scale(0.015625)"/>
     </defs>
     <use xlink:href="#MicrosoftYaHei-35"/>
     <use xlink:href="#MicrosoftYaHei-30" x="58.642578"/>
     <use xlink:href="#MicrosoftYaHei-39" x="117.285156"/>
     <use xlink:href="#MicrosoftYaHei-32" x="175.927734"/>
    </g>
   </g>
   <g id="text_18">
    <!-- 5515 -->
    <g transform="translate(414.52183 258.264906) scale(0.1 -0.1)">
     <use xlink:href="#MicrosoftYaHei-35"/>
     <use xlink:href="#MicrosoftYaHei-35" x="58.642578"/>
     <use xlink:href="#MicrosoftYaHei-31" x="117.285156"/>
     <use xlink:href="#MicrosoftYaHei-35" x="175.927734"/>
    </g>
   </g>
   <g id="text_19">
    <!-- 6284 -->
    <g transform="translate(460.919261 217.944906) scale(0.1 -0.1)">
     <use xlink:href="#MicrosoftYaHei-36"/>
     <use xlink:href="#MicrosoftYaHei-32" x="58.642578"/>
     <use xlink:href="#MicrosoftYaHei-38" x="117.285156"/>
     <use xlink:href="#MicrosoftYaHei-34" x="175.927734"/>
    </g>
   </g>
   <g id="text_20">
    <!-- 6288 -->
    <g transform="translate(461.1606 177.624906) scale(0.1 -0.1)">
     <use xlink:href="#MicrosoftYaHei-36"/>
     <use xlink:href="#MicrosoftYaHei-32" x="58.642578"/>
     <use xlink:href="#MicrosoftYaHei-38" x="117.285156"/>
     <use xlink:href="#MicrosoftYaHei-38" x="175.927734"/>
    </g>
   </g>
   <g id="text_21">
    <!-- 7082 -->
    <g transform="translate(509.0664 137.304906) scale(0.1 -0.1)">
     <defs>
      <path id="MicrosoftYaHei-37" d="M 3422 4463 
Q 2659 3131 2223 1998 
Q 1788 866 1684 0 
L 1047 0 
Q 1163 853 1594 1947 
Q 2025 3041 2747 4300 
L 347 4300 
L 347 4841 
L 3422 4841 
L 3422 4463 
z
" transform="scale(0.015625)"/>
     </defs>
     <use xlink:href="#MicrosoftYaHei-37"/>
     <use xlink:href="#MicrosoftYaHei-30" x="58.642578"/>
     <use xlink:href="#MicrosoftYaHei-38" x="117.285156"/>
     <use xlink:href="#MicrosoftYaHei-32" x="175.927734"/>
    </g>
   </g>
   <g id="text_22">
    <!-- 7372 -->
    <g transform="translate(526.56348 96.984906) scale(0.1 -0.1)">
     <use xlink:href="#MicrosoftYaHei-37"/>
     <use xlink:href="#MicrosoftYaHei-33" x="58.642578"/>
     <use xlink:href="#MicrosoftYaHei-37" x="117.285156"/>
     <use xlink:href="#MicrosoftYaHei-32" x="175.927734"/>
    </g>
   </g>
   <g id="text_23">
    <!-- 8808 -->
    <g transform="translate(613.204196 56.664906) scale(0.1 -0.1)">
     <use xlink:href="#MicrosoftYaHei-38"/>
     <use xlink:href="#MicrosoftYaHei-38" x="58.642578"/>
     <use xlink:href="#MicrosoftYaHei-30" x="117.285156"/>
     <use xlink:href="#MicrosoftYaHei-38" x="175.927734"/>
    </g>
   </g>
   <g id="text_24">
    <!-- 不同商品品类销售数 -->
    <g transform="translate(295.975625 18.711) scale(0.144 -0.144)">
     <defs>
      <path id="MicrosoftYaHei-4e0d" d="M 225 4772 
L 6181 4772 
L 6181 4284 
L 3881 4284 
Q 3581 3766 3081 3053 
L 3444 3053 
L 3444 -866 
L 2906 -866 
L 2906 2859 
Q 1838 1541 388 609 
Q 231 834 38 1059 
Q 2006 2291 3213 4284 
L 225 4284 
L 225 4772 
z
M 4069 2859 
Q 5238 2147 6325 1409 
L 5969 916 
Q 4681 1872 3763 2434 
L 4069 2859 
z
" transform="scale(0.015625)"/>
      <path id="MicrosoftYaHei-540c" d="M 1013 -772 
L 531 -772 
L 531 4959 
L 5856 4959 
L 5856 -47 
Q 5856 -741 5125 -741 
Q 4669 -741 4088 -716 
Q 4056 -497 4000 -216 
Q 4619 -272 5025 -272 
Q 5375 -272 5375 78 
L 5375 4497 
L 1013 4497 
L 1013 -772 
z
M 1875 2566 
L 4506 2566 
L 4506 597 
L 2338 597 
L 2338 272 
L 1875 272 
L 1875 2566 
z
M 4044 2116 
L 2338 2116 
L 2338 1047 
L 4044 1047 
L 4044 2116 
z
M 1363 3734 
L 5025 3734 
L 5025 3284 
L 1363 3284 
L 1363 3734 
z
" transform="scale(0.015625)"/>
     </defs>
     <use xlink:href="#MicrosoftYaHei-4e0d"/>
     <use xlink:href="#MicrosoftYaHei-540c" x="100"/>
     <use xlink:href="#MicrosoftYaHei-5546" x="200"/>
     <use xlink:href="#MicrosoftYaHei-54c1" x="300"/>
     <use xlink:href="#MicrosoftYaHei-54c1" x="400"/>
     <use xlink:href="#MicrosoftYaHei-7c7b" x="500"/>
     <use xlink:href="#MicrosoftYaHei-9500" x="600"/>
     <use xlink:href="#MicrosoftYaHei-552e" x="700"/>
     <use xlink:href="#MicrosoftYaHei-6570" x="800"/>
    </g>
   </g>
  </g>
 </g>
 <defs>
  <clipPath id="pf0fe06d71f">
   <rect x="81.775625" y="28.711" width="558" height="332.64"/>
  </clipPath>
 </defs>
</svg>
