<?xml version="1.0" encoding="utf-8" standalone="no"?>
<!DOCTYPE svg PUBLIC "-//W3C//DTD SVG 1.1//EN"
  "http://www.w3.org/Graphics/SVG/1.1/DTD/svg11.dtd">
<svg xmlns:xlink="http://www.w3.org/1999/xlink" width="490.239688pt" height="406.346115pt" viewBox="0 0 490.239688 406.346115" xmlns="http://www.w3.org/2000/svg" version="1.1">
 <metadata>
  <rdf:RDF xmlns:dc="http://purl.org/dc/elements/1.1/" xmlns:cc="http://creativecommons.org/ns#" xmlns:rdf="http://www.w3.org/1999/02/22-rdf-syntax-ns#">
   <cc:Work>
    <dc:type rdf:resource="http://purl.org/dc/dcmitype/StillImage"/>
    <dc:date>2025-04-22T11:10:39.734438</dc:date>
    <dc:format>image/svg+xml</dc:format>
    <dc:creator>
     <cc:Agent>
      <dc:title>Matplotlib v3.9.2, https://matplotlib.org/</dc:title>
     </cc:Agent>
    </dc:creator>
   </cc:Work>
  </rdf:RDF>
 </metadata>
 <defs>
  <style type="text/css">*{stroke-linejoin: round; stroke-linecap: butt}</style>
 </defs>
 <g id="figure_1">
  <g id="patch_1">
   <path d="M 0 406.346115 
L 490.239688 406.346115 
L 490.239688 0 
L 0 0 
z
" style="fill: #ffffff"/>
  </g>
  <g id="axes_1">
   <g id="patch_2">
    <path d="M 36.639688 357.351 
L 483.039688 357.351 
L 483.039688 24.711 
L 36.639688 24.711 
z
" style="fill: #e5e5e5"/>
   </g>
   <g id="matplotlib.axis_1">
    <g id="xtick_1">
     <g id="line2d_1">
      <path d="M 56.930597 357.351 
L 56.930597 24.711 
" clip-path="url(#p9d3eff60cc)" style="fill: none; stroke: #ffffff; stroke-width: 0.8; stroke-linecap: square"/>
     </g>
     <g id="line2d_2">
      <defs>
       <path id="mb53e864ece" d="M 0 0 
L 0 3.5 
" style="stroke: #555555; stroke-width: 0.8"/>
      </defs>
      <g>
       <use xlink:href="#mb53e864ece" x="56.930597" y="357.351" style="fill: #555555; stroke: #555555; stroke-width: 0.8"/>
      </g>
     </g>
     <g id="text_1">
      <!-- 1日 -->
      <g style="fill: #555555" transform="translate(54.001407 377.847017) rotate(-45) scale(0.08 -0.08)">
       <defs>
        <path id="MicrosoftYaHei-31" d="M 1781 0 
L 1781 4141 
Q 1638 3997 1295 3819 
Q 953 3641 663 3569 
L 663 4169 
Q 1047 4275 1484 4508 
Q 1922 4741 2156 4947 
L 2388 4947 
L 2388 0 
L 1781 0 
z
" transform="scale(0.015625)"/>
        <path id="MicrosoftYaHei-65e5" d="M 975 4909 
L 5431 4909 
L 5431 -766 
L 4900 -766 
L 4900 -322 
L 1506 -322 
L 1506 -766 
L 975 -766 
L 975 4909 
z
M 1506 2103 
L 1506 134 
L 4900 134 
L 4900 2103 
L 1506 2103 
z
M 1506 4441 
L 1506 2572 
L 4900 2572 
L 4900 4441 
L 1506 4441 
z
" transform="scale(0.015625)"/>
       </defs>
       <use xlink:href="#MicrosoftYaHei-31"/>
       <use xlink:href="#MicrosoftYaHei-65e5" x="58.642578"/>
      </g>
     </g>
    </g>
    <g id="xtick_2">
     <g id="line2d_3">
      <path d="M 70.924327 357.351 
L 70.924327 24.711 
" clip-path="url(#p9d3eff60cc)" style="fill: none; stroke: #ffffff; stroke-width: 0.8; stroke-linecap: square"/>
     </g>
     <g id="line2d_4">
      <g>
       <use xlink:href="#mb53e864ece" x="70.924327" y="357.351" style="fill: #555555; stroke: #555555; stroke-width: 0.8"/>
      </g>
     </g>
     <g id="text_2">
      <!-- 2日 -->
      <g style="fill: #555555" transform="translate(67.995137 377.847017) rotate(-45) scale(0.08 -0.08)">
       <defs>
        <path id="MicrosoftYaHei-32" d="M 2666 3572 
Q 2666 3963 2419 4186 
Q 2172 4409 1747 4409 
Q 1447 4409 1140 4256 
Q 834 4103 569 3819 
L 569 4413 
Q 806 4659 1107 4790 
Q 1409 4922 1816 4922 
Q 2472 4922 2872 4570 
Q 3272 4219 3272 3619 
Q 3272 3084 3026 2693 
Q 2781 2303 2188 1894 
Q 1581 1475 1376 1294 
Q 1172 1113 1090 947 
Q 1009 781 1009 544 
L 3416 544 
L 3416 0 
L 372 0 
L 372 241 
Q 372 659 486 951 
Q 600 1244 862 1520 
Q 1125 1797 1681 2184 
Q 2250 2584 2458 2886 
Q 2666 3188 2666 3572 
z
" transform="scale(0.015625)"/>
       </defs>
       <use xlink:href="#MicrosoftYaHei-32"/>
       <use xlink:href="#MicrosoftYaHei-65e5" x="58.642578"/>
      </g>
     </g>
    </g>
    <g id="xtick_3">
     <g id="line2d_5">
      <path d="M 84.918057 357.351 
L 84.918057 24.711 
" clip-path="url(#p9d3eff60cc)" style="fill: none; stroke: #ffffff; stroke-width: 0.8; stroke-linecap: square"/>
     </g>
     <g id="line2d_6">
      <g>
       <use xlink:href="#mb53e864ece" x="84.918057" y="357.351" style="fill: #555555; stroke: #555555; stroke-width: 0.8"/>
      </g>
     </g>
     <g id="text_3">
      <!-- 3日 -->
      <g style="fill: #555555" transform="translate(81.988868 377.847017) rotate(-45) scale(0.08 -0.08)">
       <defs>
        <path id="MicrosoftYaHei-33" d="M 447 809 
Q 944 425 1569 425 
Q 2069 425 2361 670 
Q 2653 916 2653 1328 
Q 2653 2247 1338 2247 
L 934 2247 
L 934 2753 
L 1319 2753 
Q 2484 2753 2484 3616 
Q 2484 4413 1594 4413 
Q 1084 4413 634 4069 
L 634 4647 
Q 1109 4922 1744 4922 
Q 2363 4922 2738 4598 
Q 3113 4275 3113 3759 
Q 3113 2809 2144 2538 
L 2144 2525 
Q 2669 2469 2973 2155 
Q 3278 1841 3278 1372 
Q 3278 719 2808 319 
Q 2338 -81 1556 -81 
Q 869 -81 447 175 
L 447 809 
z
" transform="scale(0.015625)"/>
       </defs>
       <use xlink:href="#MicrosoftYaHei-33"/>
       <use xlink:href="#MicrosoftYaHei-65e5" x="58.642578"/>
      </g>
     </g>
    </g>
    <g id="xtick_4">
     <g id="line2d_7">
      <path d="M 98.911788 357.351 
L 98.911788 24.711 
" clip-path="url(#p9d3eff60cc)" style="fill: none; stroke: #ffffff; stroke-width: 0.8; stroke-linecap: square"/>
     </g>
     <g id="line2d_8">
      <g>
       <use xlink:href="#mb53e864ece" x="98.911788" y="357.351" style="fill: #555555; stroke: #555555; stroke-width: 0.8"/>
      </g>
     </g>
     <g id="text_4">
      <!-- 4日 -->
      <g style="fill: #555555" transform="translate(95.982598 377.847017) rotate(-45) scale(0.08 -0.08)">
       <defs>
        <path id="MicrosoftYaHei-34" d="M 2906 4841 
L 2906 1644 
L 3631 1644 
L 3631 1138 
L 2906 1138 
L 2906 0 
L 2313 0 
L 2313 1138 
L 53 1138 
L 53 1616 
Q 656 2294 1265 3178 
Q 1875 4063 2272 4841 
L 2906 4841 
z
M 741 1644 
L 2313 1644 
L 2313 3950 
Q 1988 3366 1616 2817 
Q 1244 2269 741 1644 
z
" transform="scale(0.015625)"/>
       </defs>
       <use xlink:href="#MicrosoftYaHei-34"/>
       <use xlink:href="#MicrosoftYaHei-65e5" x="58.642578"/>
      </g>
     </g>
    </g>
    <g id="xtick_5">
     <g id="line2d_9">
      <path d="M 112.905518 357.351 
L 112.905518 24.711 
" clip-path="url(#p9d3eff60cc)" style="fill: none; stroke: #ffffff; stroke-width: 0.8; stroke-linecap: square"/>
     </g>
     <g id="line2d_10">
      <g>
       <use xlink:href="#mb53e864ece" x="112.905518" y="357.351" style="fill: #555555; stroke: #555555; stroke-width: 0.8"/>
      </g>
     </g>
     <g id="text_5">
      <!-- 5日 -->
      <g style="fill: #555555" transform="translate(109.976328 377.847017) rotate(-45) scale(0.08 -0.08)">
       <defs>
        <path id="MicrosoftYaHei-35" d="M 3294 1494 
Q 3294 784 2823 350 
Q 2353 -84 1559 -84 
Q 878 -84 544 119 
L 544 744 
Q 1034 425 1544 425 
Q 2050 425 2361 704 
Q 2672 984 2672 1447 
Q 2672 1909 2348 2167 
Q 2025 2425 1434 2425 
Q 978 2425 613 2384 
L 791 4841 
L 3053 4841 
L 3053 4303 
L 1306 4303 
L 1206 2931 
L 1647 2950 
Q 2416 2950 2855 2567 
Q 3294 2184 3294 1494 
z
" transform="scale(0.015625)"/>
       </defs>
       <use xlink:href="#MicrosoftYaHei-35"/>
       <use xlink:href="#MicrosoftYaHei-65e5" x="58.642578"/>
      </g>
     </g>
    </g>
    <g id="xtick_6">
     <g id="line2d_11">
      <path d="M 126.899249 357.351 
L 126.899249 24.711 
" clip-path="url(#p9d3eff60cc)" style="fill: none; stroke: #ffffff; stroke-width: 0.8; stroke-linecap: square"/>
     </g>
     <g id="line2d_12">
      <g>
       <use xlink:href="#mb53e864ece" x="126.899249" y="357.351" style="fill: #555555; stroke: #555555; stroke-width: 0.8"/>
      </g>
     </g>
     <g id="text_6">
      <!-- 6日 -->
      <g style="fill: #555555" transform="translate(123.970059 377.847017) rotate(-45) scale(0.08 -0.08)">
       <defs>
        <path id="MicrosoftYaHei-36" d="M 3181 4219 
Q 2803 4413 2391 4413 
Q 1763 4413 1381 3866 
Q 1000 3319 994 2372 
L 1009 2372 
Q 1353 3038 2106 3038 
Q 2734 3038 3109 2628 
Q 3484 2219 3484 1541 
Q 3484 831 3051 375 
Q 2619 -81 1947 -81 
Q 1209 -81 789 495 
Q 369 1072 369 2131 
Q 369 3413 920 4167 
Q 1472 4922 2372 4922 
Q 2888 4922 3181 4781 
L 3181 4219 
z
M 1031 1584 
Q 1031 1106 1286 765 
Q 1541 425 1963 425 
Q 2363 425 2613 719 
Q 2863 1013 2863 1475 
Q 2863 1975 2627 2253 
Q 2391 2531 1956 2531 
Q 1544 2531 1287 2250 
Q 1031 1969 1031 1584 
z
" transform="scale(0.015625)"/>
       </defs>
       <use xlink:href="#MicrosoftYaHei-36"/>
       <use xlink:href="#MicrosoftYaHei-65e5" x="58.642578"/>
      </g>
     </g>
    </g>
    <g id="xtick_7">
     <g id="line2d_13">
      <path d="M 140.892979 357.351 
L 140.892979 24.711 
" clip-path="url(#p9d3eff60cc)" style="fill: none; stroke: #ffffff; stroke-width: 0.8; stroke-linecap: square"/>
     </g>
     <g id="line2d_14">
      <g>
       <use xlink:href="#mb53e864ece" x="140.892979" y="357.351" style="fill: #555555; stroke: #555555; stroke-width: 0.8"/>
      </g>
     </g>
     <g id="text_7">
      <!-- 7日 -->
      <g style="fill: #555555" transform="translate(137.963789 377.847017) rotate(-45) scale(0.08 -0.08)">
       <defs>
        <path id="MicrosoftYaHei-37" d="M 3422 4463 
Q 2659 3131 2223 1998 
Q 1788 866 1684 0 
L 1047 0 
Q 1163 853 1594 1947 
Q 2025 3041 2747 4300 
L 347 4300 
L 347 4841 
L 3422 4841 
L 3422 4463 
z
" transform="scale(0.015625)"/>
       </defs>
       <use xlink:href="#MicrosoftYaHei-37"/>
       <use xlink:href="#MicrosoftYaHei-65e5" x="58.642578"/>
      </g>
     </g>
    </g>
    <g id="xtick_8">
     <g id="line2d_15">
      <path d="M 154.886709 357.351 
L 154.886709 24.711 
" clip-path="url(#p9d3eff60cc)" style="fill: none; stroke: #ffffff; stroke-width: 0.8; stroke-linecap: square"/>
     </g>
     <g id="line2d_16">
      <g>
       <use xlink:href="#mb53e864ece" x="154.886709" y="357.351" style="fill: #555555; stroke: #555555; stroke-width: 0.8"/>
      </g>
     </g>
     <g id="text_8">
      <!-- 8日 -->
      <g style="fill: #555555" transform="translate(151.95752 377.847017) rotate(-45) scale(0.08 -0.08)">
       <defs>
        <path id="MicrosoftYaHei-38" d="M 306 1350 
Q 306 1769 556 2122 
Q 806 2475 1200 2625 
Q 884 2803 700 3081 
Q 516 3359 516 3684 
Q 516 4028 692 4312 
Q 869 4597 1183 4759 
Q 1497 4922 1875 4922 
Q 2256 4922 2572 4761 
Q 2888 4600 3063 4315 
Q 3238 4031 3238 3684 
Q 3238 3366 3058 3086 
Q 2878 2806 2559 2625 
Q 2953 2472 3200 2119 
Q 3447 1766 3447 1350 
Q 3447 938 3250 611 
Q 3053 284 2690 103 
Q 2328 -78 1875 -78 
Q 1425 -78 1065 103 
Q 706 284 506 612 
Q 306 941 306 1350 
z
M 906 1378 
Q 906 947 1172 687 
Q 1438 428 1878 428 
Q 2309 428 2582 692 
Q 2856 956 2856 1378 
Q 2856 1778 2579 2051 
Q 2303 2325 1878 2325 
Q 1456 2325 1181 2058 
Q 906 1791 906 1378 
z
M 1081 3634 
Q 1081 3309 1312 3076 
Q 1544 2844 1878 2844 
Q 2206 2844 2445 3078 
Q 2684 3313 2684 3634 
Q 2684 3963 2454 4191 
Q 2225 4419 1878 4419 
Q 1534 4419 1307 4195 
Q 1081 3972 1081 3634 
z
" transform="scale(0.015625)"/>
       </defs>
       <use xlink:href="#MicrosoftYaHei-38"/>
       <use xlink:href="#MicrosoftYaHei-65e5" x="58.642578"/>
      </g>
     </g>
    </g>
    <g id="xtick_9">
     <g id="line2d_17">
      <path d="M 168.88044 357.351 
L 168.88044 24.711 
" clip-path="url(#p9d3eff60cc)" style="fill: none; stroke: #ffffff; stroke-width: 0.8; stroke-linecap: square"/>
     </g>
     <g id="line2d_18">
      <g>
       <use xlink:href="#mb53e864ece" x="168.88044" y="357.351" style="fill: #555555; stroke: #555555; stroke-width: 0.8"/>
      </g>
     </g>
     <g id="text_9">
      <!-- 9日 -->
      <g style="fill: #555555" transform="translate(165.95125 377.847017) rotate(-45) scale(0.08 -0.08)">
       <defs>
        <path id="MicrosoftYaHei-39" d="M 578 656 
Q 978 425 1441 425 
Q 2091 425 2448 937 
Q 2806 1450 2806 2394 
Q 2800 2388 2794 2394 
Q 2475 1788 1722 1788 
Q 1113 1788 713 2206 
Q 313 2625 313 3294 
Q 313 4006 750 4464 
Q 1188 4922 1884 4922 
Q 2606 4922 3012 4355 
Q 3419 3788 3419 2703 
Q 3419 1363 2894 641 
Q 2369 -81 1441 -81 
Q 931 -81 578 84 
L 578 656 
z
M 931 3372 
Q 931 2884 1181 2598 
Q 1431 2313 1872 2313 
Q 2253 2313 2512 2573 
Q 2772 2834 2772 3206 
Q 2772 3728 2514 4070 
Q 2256 4413 1834 4413 
Q 1444 4413 1187 4116 
Q 931 3819 931 3372 
z
" transform="scale(0.015625)"/>
       </defs>
       <use xlink:href="#MicrosoftYaHei-39"/>
       <use xlink:href="#MicrosoftYaHei-65e5" x="58.642578"/>
      </g>
     </g>
    </g>
    <g id="xtick_10">
     <g id="line2d_19">
      <path d="M 182.87417 357.351 
L 182.87417 24.711 
" clip-path="url(#p9d3eff60cc)" style="fill: none; stroke: #ffffff; stroke-width: 0.8; stroke-linecap: square"/>
     </g>
     <g id="line2d_20">
      <g>
       <use xlink:href="#mb53e864ece" x="182.87417" y="357.351" style="fill: #555555; stroke: #555555; stroke-width: 0.8"/>
      </g>
     </g>
     <g id="text_10">
      <!-- 10日 -->
      <g style="fill: #555555" transform="translate(178.286373 381.164231) rotate(-45) scale(0.08 -0.08)">
       <defs>
        <path id="MicrosoftYaHei-30" d="M 284 2325 
Q 284 3606 709 4264 
Q 1134 4922 1941 4922 
Q 3478 4922 3478 2441 
Q 3478 1216 3045 567 
Q 2613 -81 1831 -81 
Q 1094 -81 689 534 
Q 284 1150 284 2325 
z
M 909 2353 
Q 909 425 1888 425 
Q 2850 425 2850 2384 
Q 2850 4413 1906 4413 
Q 909 4413 909 2353 
z
" transform="scale(0.015625)"/>
       </defs>
       <use xlink:href="#MicrosoftYaHei-31"/>
       <use xlink:href="#MicrosoftYaHei-30" x="58.642578"/>
       <use xlink:href="#MicrosoftYaHei-65e5" x="117.285156"/>
      </g>
     </g>
    </g>
    <g id="xtick_11">
     <g id="line2d_21">
      <path d="M 196.867901 357.351 
L 196.867901 24.711 
" clip-path="url(#p9d3eff60cc)" style="fill: none; stroke: #ffffff; stroke-width: 0.8; stroke-linecap: square"/>
     </g>
     <g id="line2d_22">
      <g>
       <use xlink:href="#mb53e864ece" x="196.867901" y="357.351" style="fill: #555555; stroke: #555555; stroke-width: 0.8"/>
      </g>
     </g>
     <g id="text_11">
      <!-- 11日 -->
      <g style="fill: #555555" transform="translate(192.280103 381.164231) rotate(-45) scale(0.08 -0.08)">
       <use xlink:href="#MicrosoftYaHei-31"/>
       <use xlink:href="#MicrosoftYaHei-31" x="58.642578"/>
       <use xlink:href="#MicrosoftYaHei-65e5" x="117.285156"/>
      </g>
     </g>
    </g>
    <g id="xtick_12">
     <g id="line2d_23">
      <path d="M 210.861631 357.351 
L 210.861631 24.711 
" clip-path="url(#p9d3eff60cc)" style="fill: none; stroke: #ffffff; stroke-width: 0.8; stroke-linecap: square"/>
     </g>
     <g id="line2d_24">
      <g>
       <use xlink:href="#mb53e864ece" x="210.861631" y="357.351" style="fill: #555555; stroke: #555555; stroke-width: 0.8"/>
      </g>
     </g>
     <g id="text_12">
      <!-- 12日 -->
      <g style="fill: #555555" transform="translate(206.273834 381.164231) rotate(-45) scale(0.08 -0.08)">
       <use xlink:href="#MicrosoftYaHei-31"/>
       <use xlink:href="#MicrosoftYaHei-32" x="58.642578"/>
       <use xlink:href="#MicrosoftYaHei-65e5" x="117.285156"/>
      </g>
     </g>
    </g>
    <g id="xtick_13">
     <g id="line2d_25">
      <path d="M 224.855361 357.351 
L 224.855361 24.711 
" clip-path="url(#p9d3eff60cc)" style="fill: none; stroke: #ffffff; stroke-width: 0.8; stroke-linecap: square"/>
     </g>
     <g id="line2d_26">
      <g>
       <use xlink:href="#mb53e864ece" x="224.855361" y="357.351" style="fill: #555555; stroke: #555555; stroke-width: 0.8"/>
      </g>
     </g>
     <g id="text_13">
      <!-- 13日 -->
      <g style="fill: #555555" transform="translate(220.267564 381.164231) rotate(-45) scale(0.08 -0.08)">
       <use xlink:href="#MicrosoftYaHei-31"/>
       <use xlink:href="#MicrosoftYaHei-33" x="58.642578"/>
       <use xlink:href="#MicrosoftYaHei-65e5" x="117.285156"/>
      </g>
     </g>
    </g>
    <g id="xtick_14">
     <g id="line2d_27">
      <path d="M 238.849092 357.351 
L 238.849092 24.711 
" clip-path="url(#p9d3eff60cc)" style="fill: none; stroke: #ffffff; stroke-width: 0.8; stroke-linecap: square"/>
     </g>
     <g id="line2d_28">
      <g>
       <use xlink:href="#mb53e864ece" x="238.849092" y="357.351" style="fill: #555555; stroke: #555555; stroke-width: 0.8"/>
      </g>
     </g>
     <g id="text_14">
      <!-- 14日 -->
      <g style="fill: #555555" transform="translate(234.261295 381.164231) rotate(-45) scale(0.08 -0.08)">
       <use xlink:href="#MicrosoftYaHei-31"/>
       <use xlink:href="#MicrosoftYaHei-34" x="58.642578"/>
       <use xlink:href="#MicrosoftYaHei-65e5" x="117.285156"/>
      </g>
     </g>
    </g>
    <g id="xtick_15">
     <g id="line2d_29">
      <path d="M 252.842822 357.351 
L 252.842822 24.711 
" clip-path="url(#p9d3eff60cc)" style="fill: none; stroke: #ffffff; stroke-width: 0.8; stroke-linecap: square"/>
     </g>
     <g id="line2d_30">
      <g>
       <use xlink:href="#mb53e864ece" x="252.842822" y="357.351" style="fill: #555555; stroke: #555555; stroke-width: 0.8"/>
      </g>
     </g>
     <g id="text_15">
      <!-- 15日 -->
      <g style="fill: #555555" transform="translate(248.255025 381.164231) rotate(-45) scale(0.08 -0.08)">
       <use xlink:href="#MicrosoftYaHei-31"/>
       <use xlink:href="#MicrosoftYaHei-35" x="58.642578"/>
       <use xlink:href="#MicrosoftYaHei-65e5" x="117.285156"/>
      </g>
     </g>
    </g>
    <g id="xtick_16">
     <g id="line2d_31">
      <path d="M 266.836553 357.351 
L 266.836553 24.711 
" clip-path="url(#p9d3eff60cc)" style="fill: none; stroke: #ffffff; stroke-width: 0.8; stroke-linecap: square"/>
     </g>
     <g id="line2d_32">
      <g>
       <use xlink:href="#mb53e864ece" x="266.836553" y="357.351" style="fill: #555555; stroke: #555555; stroke-width: 0.8"/>
      </g>
     </g>
     <g id="text_16">
      <!-- 16日 -->
      <g style="fill: #555555" transform="translate(262.248756 381.164231) rotate(-45) scale(0.08 -0.08)">
       <use xlink:href="#MicrosoftYaHei-31"/>
       <use xlink:href="#MicrosoftYaHei-36" x="58.642578"/>
       <use xlink:href="#MicrosoftYaHei-65e5" x="117.285156"/>
      </g>
     </g>
    </g>
    <g id="xtick_17">
     <g id="line2d_33">
      <path d="M 280.830283 357.351 
L 280.830283 24.711 
" clip-path="url(#p9d3eff60cc)" style="fill: none; stroke: #ffffff; stroke-width: 0.8; stroke-linecap: square"/>
     </g>
     <g id="line2d_34">
      <g>
       <use xlink:href="#mb53e864ece" x="280.830283" y="357.351" style="fill: #555555; stroke: #555555; stroke-width: 0.8"/>
      </g>
     </g>
     <g id="text_17">
      <!-- 17日 -->
      <g style="fill: #555555" transform="translate(276.242486 381.164231) rotate(-45) scale(0.08 -0.08)">
       <use xlink:href="#MicrosoftYaHei-31"/>
       <use xlink:href="#MicrosoftYaHei-37" x="58.642578"/>
       <use xlink:href="#MicrosoftYaHei-65e5" x="117.285156"/>
      </g>
     </g>
    </g>
    <g id="xtick_18">
     <g id="line2d_35">
      <path d="M 294.824014 357.351 
L 294.824014 24.711 
" clip-path="url(#p9d3eff60cc)" style="fill: none; stroke: #ffffff; stroke-width: 0.8; stroke-linecap: square"/>
     </g>
     <g id="line2d_36">
      <g>
       <use xlink:href="#mb53e864ece" x="294.824014" y="357.351" style="fill: #555555; stroke: #555555; stroke-width: 0.8"/>
      </g>
     </g>
     <g id="text_18">
      <!-- 18日 -->
      <g style="fill: #555555" transform="translate(290.236216 381.164231) rotate(-45) scale(0.08 -0.08)">
       <use xlink:href="#MicrosoftYaHei-31"/>
       <use xlink:href="#MicrosoftYaHei-38" x="58.642578"/>
       <use xlink:href="#MicrosoftYaHei-65e5" x="117.285156"/>
      </g>
     </g>
    </g>
    <g id="xtick_19">
     <g id="line2d_37">
      <path d="M 308.817744 357.351 
L 308.817744 24.711 
" clip-path="url(#p9d3eff60cc)" style="fill: none; stroke: #ffffff; stroke-width: 0.8; stroke-linecap: square"/>
     </g>
     <g id="line2d_38">
      <g>
       <use xlink:href="#mb53e864ece" x="308.817744" y="357.351" style="fill: #555555; stroke: #555555; stroke-width: 0.8"/>
      </g>
     </g>
     <g id="text_19">
      <!-- 19日 -->
      <g style="fill: #555555" transform="translate(304.229947 381.164231) rotate(-45) scale(0.08 -0.08)">
       <use xlink:href="#MicrosoftYaHei-31"/>
       <use xlink:href="#MicrosoftYaHei-39" x="58.642578"/>
       <use xlink:href="#MicrosoftYaHei-65e5" x="117.285156"/>
      </g>
     </g>
    </g>
    <g id="xtick_20">
     <g id="line2d_39">
      <path d="M 322.811474 357.351 
L 322.811474 24.711 
" clip-path="url(#p9d3eff60cc)" style="fill: none; stroke: #ffffff; stroke-width: 0.8; stroke-linecap: square"/>
     </g>
     <g id="line2d_40">
      <g>
       <use xlink:href="#mb53e864ece" x="322.811474" y="357.351" style="fill: #555555; stroke: #555555; stroke-width: 0.8"/>
      </g>
     </g>
     <g id="text_20">
      <!-- 20日 -->
      <g style="fill: #555555" transform="translate(318.223677 381.164231) rotate(-45) scale(0.08 -0.08)">
       <use xlink:href="#MicrosoftYaHei-32"/>
       <use xlink:href="#MicrosoftYaHei-30" x="58.642578"/>
       <use xlink:href="#MicrosoftYaHei-65e5" x="117.285156"/>
      </g>
     </g>
    </g>
    <g id="xtick_21">
     <g id="line2d_41">
      <path d="M 336.805205 357.351 
L 336.805205 24.711 
" clip-path="url(#p9d3eff60cc)" style="fill: none; stroke: #ffffff; stroke-width: 0.8; stroke-linecap: square"/>
     </g>
     <g id="line2d_42">
      <g>
       <use xlink:href="#mb53e864ece" x="336.805205" y="357.351" style="fill: #555555; stroke: #555555; stroke-width: 0.8"/>
      </g>
     </g>
     <g id="text_21">
      <!-- 21日 -->
      <g style="fill: #555555" transform="translate(332.217408 381.164231) rotate(-45) scale(0.08 -0.08)">
       <use xlink:href="#MicrosoftYaHei-32"/>
       <use xlink:href="#MicrosoftYaHei-31" x="58.642578"/>
       <use xlink:href="#MicrosoftYaHei-65e5" x="117.285156"/>
      </g>
     </g>
    </g>
    <g id="xtick_22">
     <g id="line2d_43">
      <path d="M 350.798935 357.351 
L 350.798935 24.711 
" clip-path="url(#p9d3eff60cc)" style="fill: none; stroke: #ffffff; stroke-width: 0.8; stroke-linecap: square"/>
     </g>
     <g id="line2d_44">
      <g>
       <use xlink:href="#mb53e864ece" x="350.798935" y="357.351" style="fill: #555555; stroke: #555555; stroke-width: 0.8"/>
      </g>
     </g>
     <g id="text_22">
      <!-- 22日 -->
      <g style="fill: #555555" transform="translate(346.211138 381.164231) rotate(-45) scale(0.08 -0.08)">
       <use xlink:href="#MicrosoftYaHei-32"/>
       <use xlink:href="#MicrosoftYaHei-32" x="58.642578"/>
       <use xlink:href="#MicrosoftYaHei-65e5" x="117.285156"/>
      </g>
     </g>
    </g>
    <g id="xtick_23">
     <g id="line2d_45">
      <path d="M 364.792666 357.351 
L 364.792666 24.711 
" clip-path="url(#p9d3eff60cc)" style="fill: none; stroke: #ffffff; stroke-width: 0.8; stroke-linecap: square"/>
     </g>
     <g id="line2d_46">
      <g>
       <use xlink:href="#mb53e864ece" x="364.792666" y="357.351" style="fill: #555555; stroke: #555555; stroke-width: 0.8"/>
      </g>
     </g>
     <g id="text_23">
      <!-- 23日 -->
      <g style="fill: #555555" transform="translate(360.204868 381.164231) rotate(-45) scale(0.08 -0.08)">
       <use xlink:href="#MicrosoftYaHei-32"/>
       <use xlink:href="#MicrosoftYaHei-33" x="58.642578"/>
       <use xlink:href="#MicrosoftYaHei-65e5" x="117.285156"/>
      </g>
     </g>
    </g>
    <g id="xtick_24">
     <g id="line2d_47">
      <path d="M 378.786396 357.351 
L 378.786396 24.711 
" clip-path="url(#p9d3eff60cc)" style="fill: none; stroke: #ffffff; stroke-width: 0.8; stroke-linecap: square"/>
     </g>
     <g id="line2d_48">
      <g>
       <use xlink:href="#mb53e864ece" x="378.786396" y="357.351" style="fill: #555555; stroke: #555555; stroke-width: 0.8"/>
      </g>
     </g>
     <g id="text_24">
      <!-- 24日 -->
      <g style="fill: #555555" transform="translate(374.198599 381.164231) rotate(-45) scale(0.08 -0.08)">
       <use xlink:href="#MicrosoftYaHei-32"/>
       <use xlink:href="#MicrosoftYaHei-34" x="58.642578"/>
       <use xlink:href="#MicrosoftYaHei-65e5" x="117.285156"/>
      </g>
     </g>
    </g>
    <g id="xtick_25">
     <g id="line2d_49">
      <path d="M 392.780126 357.351 
L 392.780126 24.711 
" clip-path="url(#p9d3eff60cc)" style="fill: none; stroke: #ffffff; stroke-width: 0.8; stroke-linecap: square"/>
     </g>
     <g id="line2d_50">
      <g>
       <use xlink:href="#mb53e864ece" x="392.780126" y="357.351" style="fill: #555555; stroke: #555555; stroke-width: 0.8"/>
      </g>
     </g>
     <g id="text_25">
      <!-- 25日 -->
      <g style="fill: #555555" transform="translate(388.192329 381.164231) rotate(-45) scale(0.08 -0.08)">
       <use xlink:href="#MicrosoftYaHei-32"/>
       <use xlink:href="#MicrosoftYaHei-35" x="58.642578"/>
       <use xlink:href="#MicrosoftYaHei-65e5" x="117.285156"/>
      </g>
     </g>
    </g>
    <g id="xtick_26">
     <g id="line2d_51">
      <path d="M 406.773857 357.351 
L 406.773857 24.711 
" clip-path="url(#p9d3eff60cc)" style="fill: none; stroke: #ffffff; stroke-width: 0.8; stroke-linecap: square"/>
     </g>
     <g id="line2d_52">
      <g>
       <use xlink:href="#mb53e864ece" x="406.773857" y="357.351" style="fill: #555555; stroke: #555555; stroke-width: 0.8"/>
      </g>
     </g>
     <g id="text_26">
      <!-- 26日 -->
      <g style="fill: #555555" transform="translate(402.18606 381.164231) rotate(-45) scale(0.08 -0.08)">
       <use xlink:href="#MicrosoftYaHei-32"/>
       <use xlink:href="#MicrosoftYaHei-36" x="58.642578"/>
       <use xlink:href="#MicrosoftYaHei-65e5" x="117.285156"/>
      </g>
     </g>
    </g>
    <g id="xtick_27">
     <g id="line2d_53">
      <path d="M 420.767587 357.351 
L 420.767587 24.711 
" clip-path="url(#p9d3eff60cc)" style="fill: none; stroke: #ffffff; stroke-width: 0.8; stroke-linecap: square"/>
     </g>
     <g id="line2d_54">
      <g>
       <use xlink:href="#mb53e864ece" x="420.767587" y="357.351" style="fill: #555555; stroke: #555555; stroke-width: 0.8"/>
      </g>
     </g>
     <g id="text_27">
      <!-- 27日 -->
      <g style="fill: #555555" transform="translate(416.17979 381.164231) rotate(-45) scale(0.08 -0.08)">
       <use xlink:href="#MicrosoftYaHei-32"/>
       <use xlink:href="#MicrosoftYaHei-37" x="58.642578"/>
       <use xlink:href="#MicrosoftYaHei-65e5" x="117.285156"/>
      </g>
     </g>
    </g>
    <g id="xtick_28">
     <g id="line2d_55">
      <path d="M 434.761318 357.351 
L 434.761318 24.711 
" clip-path="url(#p9d3eff60cc)" style="fill: none; stroke: #ffffff; stroke-width: 0.8; stroke-linecap: square"/>
     </g>
     <g id="line2d_56">
      <g>
       <use xlink:href="#mb53e864ece" x="434.761318" y="357.351" style="fill: #555555; stroke: #555555; stroke-width: 0.8"/>
      </g>
     </g>
     <g id="text_28">
      <!-- 28日 -->
      <g style="fill: #555555" transform="translate(430.17352 381.164231) rotate(-45) scale(0.08 -0.08)">
       <use xlink:href="#MicrosoftYaHei-32"/>
       <use xlink:href="#MicrosoftYaHei-38" x="58.642578"/>
       <use xlink:href="#MicrosoftYaHei-65e5" x="117.285156"/>
      </g>
     </g>
    </g>
    <g id="xtick_29">
     <g id="line2d_57">
      <path d="M 448.755048 357.351 
L 448.755048 24.711 
" clip-path="url(#p9d3eff60cc)" style="fill: none; stroke: #ffffff; stroke-width: 0.8; stroke-linecap: square"/>
     </g>
     <g id="line2d_58">
      <g>
       <use xlink:href="#mb53e864ece" x="448.755048" y="357.351" style="fill: #555555; stroke: #555555; stroke-width: 0.8"/>
      </g>
     </g>
     <g id="text_29">
      <!-- 29日 -->
      <g style="fill: #555555" transform="translate(444.167251 381.164231) rotate(-45) scale(0.08 -0.08)">
       <use xlink:href="#MicrosoftYaHei-32"/>
       <use xlink:href="#MicrosoftYaHei-39" x="58.642578"/>
       <use xlink:href="#MicrosoftYaHei-65e5" x="117.285156"/>
      </g>
     </g>
    </g>
    <g id="xtick_30">
     <g id="line2d_59">
      <path d="M 462.748778 357.351 
L 462.748778 24.711 
" clip-path="url(#p9d3eff60cc)" style="fill: none; stroke: #ffffff; stroke-width: 0.8; stroke-linecap: square"/>
     </g>
     <g id="line2d_60">
      <g>
       <use xlink:href="#mb53e864ece" x="462.748778" y="357.351" style="fill: #555555; stroke: #555555; stroke-width: 0.8"/>
      </g>
     </g>
     <g id="text_30">
      <!-- 30日 -->
      <g style="fill: #555555" transform="translate(458.160981 381.164231) rotate(-45) scale(0.08 -0.08)">
       <use xlink:href="#MicrosoftYaHei-33"/>
       <use xlink:href="#MicrosoftYaHei-30" x="58.642578"/>
       <use xlink:href="#MicrosoftYaHei-65e5" x="117.285156"/>
      </g>
     </g>
    </g>
    <g id="text_31">
     <!-- 日期 -->
     <g style="fill: #555555" transform="translate(247.839687 396.16299) scale(0.12 -0.12)">
      <defs>
       <path id="MicrosoftYaHei-671f" d="M 3769 5066 
L 5981 5066 
L 5981 -3 
Q 5981 -741 5281 -741 
Q 4931 -741 4594 -722 
Q 4569 -516 4519 -241 
Q 4975 -284 5175 -284 
Q 5519 -284 5519 59 
L 5519 1372 
L 4181 1372 
Q 4113 3 3350 -903 
Q 3181 -728 2975 -553 
Q 3481 28 3619 653 
Q 3769 1253 3769 2741 
L 3769 5066 
z
M 125 1141 
L 713 1141 
L 713 4028 
L 200 4028 
L 200 4453 
L 713 4453 
L 713 5216 
L 1175 5216 
L 1175 4453 
L 2475 4453 
L 2475 5241 
L 2938 5241 
L 2938 4453 
L 3444 4453 
L 3444 4028 
L 2938 4028 
L 2938 1141 
L 3438 1141 
L 3438 716 
L 125 716 
L 125 1141 
z
M 4209 1784 
L 5519 1784 
L 5519 3009 
L 4231 3009 
Q 4238 2203 4209 1784 
z
M 5519 4641 
L 4231 4641 
L 4231 3422 
L 5519 3422 
L 5519 4641 
z
M 1175 1141 
L 2475 1141 
L 2475 1841 
L 1175 1841 
L 1175 1141 
z
M 1175 2241 
L 2475 2241 
L 2475 2934 
L 1175 2934 
L 1175 2241 
z
M 1175 3334 
L 2475 3334 
L 2475 4028 
L 1175 4028 
L 1175 3334 
z
M 1175 597 
L 1556 297 
Q 925 -384 406 -847 
Q 275 -697 75 -516 
Q 669 -9 1175 597 
z
M 1994 303 
L 2294 609 
Q 2731 284 3119 -47 
L 2788 -403 
Q 2438 -53 1994 303 
z
" transform="scale(0.015625)"/>
      </defs>
      <use xlink:href="#MicrosoftYaHei-65e5"/>
      <use xlink:href="#MicrosoftYaHei-671f" x="100"/>
     </g>
    </g>
   </g>
   <g id="matplotlib.axis_2">
    <g id="ytick_1">
     <g id="line2d_61">
      <path d="M 36.639688 357.351 
L 483.039688 357.351 
" clip-path="url(#p9d3eff60cc)" style="fill: none; stroke: #ffffff; stroke-width: 0.8; stroke-linecap: square"/>
     </g>
     <g id="line2d_62">
      <defs>
       <path id="mf69914b3d2" d="M 0 0 
L -3.5 0 
" style="stroke: #555555; stroke-width: 0.8"/>
      </defs>
      <g>
       <use xlink:href="#mf69914b3d2" x="36.639688" y="357.351" style="fill: #555555; stroke: #555555; stroke-width: 0.8"/>
      </g>
     </g>
     <g id="text_32">
      <!-- 0 -->
      <g style="fill: #555555" transform="translate(23.775625 361.347875) scale(0.1 -0.1)">
       <use xlink:href="#MicrosoftYaHei-30"/>
      </g>
     </g>
    </g>
    <g id="ytick_2">
     <g id="line2d_63">
      <path d="M 36.639688 315.218858 
L 483.039688 315.218858 
" clip-path="url(#p9d3eff60cc)" style="fill: none; stroke: #ffffff; stroke-width: 0.8; stroke-linecap: square"/>
     </g>
     <g id="line2d_64">
      <g>
       <use xlink:href="#mf69914b3d2" x="36.639688" y="315.218858" style="fill: #555555; stroke: #555555; stroke-width: 0.8"/>
      </g>
     </g>
     <g id="text_33">
      <!-- 1 -->
      <g style="fill: #555555" transform="translate(23.775625 319.215733) scale(0.1 -0.1)">
       <use xlink:href="#MicrosoftYaHei-31"/>
      </g>
     </g>
    </g>
    <g id="ytick_3">
     <g id="line2d_65">
      <path d="M 36.639688 273.086717 
L 483.039688 273.086717 
" clip-path="url(#p9d3eff60cc)" style="fill: none; stroke: #ffffff; stroke-width: 0.8; stroke-linecap: square"/>
     </g>
     <g id="line2d_66">
      <g>
       <use xlink:href="#mf69914b3d2" x="36.639688" y="273.086717" style="fill: #555555; stroke: #555555; stroke-width: 0.8"/>
      </g>
     </g>
     <g id="text_34">
      <!-- 2 -->
      <g style="fill: #555555" transform="translate(23.775625 277.083592) scale(0.1 -0.1)">
       <use xlink:href="#MicrosoftYaHei-32"/>
      </g>
     </g>
    </g>
    <g id="ytick_4">
     <g id="line2d_67">
      <path d="M 36.639688 230.954575 
L 483.039688 230.954575 
" clip-path="url(#p9d3eff60cc)" style="fill: none; stroke: #ffffff; stroke-width: 0.8; stroke-linecap: square"/>
     </g>
     <g id="line2d_68">
      <g>
       <use xlink:href="#mf69914b3d2" x="36.639688" y="230.954575" style="fill: #555555; stroke: #555555; stroke-width: 0.8"/>
      </g>
     </g>
     <g id="text_35">
      <!-- 3 -->
      <g style="fill: #555555" transform="translate(23.775625 234.95145) scale(0.1 -0.1)">
       <use xlink:href="#MicrosoftYaHei-33"/>
      </g>
     </g>
    </g>
    <g id="ytick_5">
     <g id="line2d_69">
      <path d="M 36.639688 188.822433 
L 483.039688 188.822433 
" clip-path="url(#p9d3eff60cc)" style="fill: none; stroke: #ffffff; stroke-width: 0.8; stroke-linecap: square"/>
     </g>
     <g id="line2d_70">
      <g>
       <use xlink:href="#mf69914b3d2" x="36.639688" y="188.822433" style="fill: #555555; stroke: #555555; stroke-width: 0.8"/>
      </g>
     </g>
     <g id="text_36">
      <!-- 4 -->
      <g style="fill: #555555" transform="translate(23.775625 192.819308) scale(0.1 -0.1)">
       <use xlink:href="#MicrosoftYaHei-34"/>
      </g>
     </g>
    </g>
    <g id="ytick_6">
     <g id="line2d_71">
      <path d="M 36.639688 146.690291 
L 483.039688 146.690291 
" clip-path="url(#p9d3eff60cc)" style="fill: none; stroke: #ffffff; stroke-width: 0.8; stroke-linecap: square"/>
     </g>
     <g id="line2d_72">
      <g>
       <use xlink:href="#mf69914b3d2" x="36.639688" y="146.690291" style="fill: #555555; stroke: #555555; stroke-width: 0.8"/>
      </g>
     </g>
     <g id="text_37">
      <!-- 5 -->
      <g style="fill: #555555" transform="translate(23.775625 150.687166) scale(0.1 -0.1)">
       <use xlink:href="#MicrosoftYaHei-35"/>
      </g>
     </g>
    </g>
    <g id="ytick_7">
     <g id="line2d_73">
      <path d="M 36.639688 104.55815 
L 483.039688 104.55815 
" clip-path="url(#p9d3eff60cc)" style="fill: none; stroke: #ffffff; stroke-width: 0.8; stroke-linecap: square"/>
     </g>
     <g id="line2d_74">
      <g>
       <use xlink:href="#mf69914b3d2" x="36.639688" y="104.55815" style="fill: #555555; stroke: #555555; stroke-width: 0.8"/>
      </g>
     </g>
     <g id="text_38">
      <!-- 6 -->
      <g style="fill: #555555" transform="translate(23.775625 108.555025) scale(0.1 -0.1)">
       <use xlink:href="#MicrosoftYaHei-36"/>
      </g>
     </g>
    </g>
    <g id="ytick_8">
     <g id="line2d_75">
      <path d="M 36.639688 62.426008 
L 483.039688 62.426008 
" clip-path="url(#p9d3eff60cc)" style="fill: none; stroke: #ffffff; stroke-width: 0.8; stroke-linecap: square"/>
     </g>
     <g id="line2d_76">
      <g>
       <use xlink:href="#mf69914b3d2" x="36.639688" y="62.426008" style="fill: #555555; stroke: #555555; stroke-width: 0.8"/>
      </g>
     </g>
     <g id="text_39">
      <!-- 7 -->
      <g style="fill: #555555" transform="translate(23.775625 66.422883) scale(0.1 -0.1)">
       <use xlink:href="#MicrosoftYaHei-37"/>
      </g>
     </g>
    </g>
    <g id="text_40">
     <!-- 价格 -->
     <g style="fill: #555555" transform="translate(16.7925 203.031) rotate(-90) scale(0.12 -0.12)">
      <defs>
       <path id="MicrosoftYaHei-4ef7" d="M 69 2166 
Q 913 3484 1388 5259 
L 1875 5109 
Q 1650 4391 1400 3766 
L 1400 -853 
L 931 -853 
L 931 2722 
Q 619 2109 281 1622 
Q 163 1959 69 2166 
z
M 4319 5272 
L 4231 5116 
Q 5006 3747 6319 3141 
Q 6156 2953 5975 2703 
Q 4706 3434 3975 4703 
Q 3275 3497 2000 2603 
Q 1850 2822 1675 2997 
Q 3088 3884 3756 5272 
L 4319 5272 
z
M 3313 2828 
L 3313 1941 
Q 3313 134 2275 -891 
Q 2094 -709 1856 -541 
Q 2825 347 2825 1897 
L 2825 2828 
L 3313 2828 
z
M 4631 2828 
L 5119 2828 
L 5119 -828 
L 4631 -828 
L 4631 2828 
z
" transform="scale(0.015625)"/>
       <path id="MicrosoftYaHei-683c" d="M 2250 3278 
Q 3063 4309 3438 5341 
L 3906 5184 
Q 3788 4903 3644 4628 
L 5906 4628 
L 5906 4184 
Q 5481 3447 4731 2809 
Q 5450 2409 6313 2247 
Q 6169 1947 6106 1703 
Q 5163 1991 4313 2503 
Q 3481 1972 2306 1528 
Q 2206 1759 2094 1966 
Q 3088 2284 3919 2816 
Q 3450 3253 3163 3791 
Q 2888 3366 2563 2947 
Q 2444 3084 2250 3278 
z
M 2713 1559 
L 5800 1559 
L 5800 -872 
L 5319 -872 
L 5319 -559 
L 3194 -559 
L 3194 -872 
L 2713 -872 
L 2713 1559 
z
M 88 1378 
Q 756 2422 1025 3641 
L 131 3641 
L 131 4078 
L 1031 4078 
L 1031 5297 
L 1500 5297 
L 1500 4078 
L 2300 4078 
L 2300 3641 
L 1500 3641 
L 1500 2953 
L 1675 3122 
Q 2013 2797 2419 2384 
L 2094 2078 
Q 1763 2466 1500 2747 
L 1500 -866 
L 1031 -866 
L 1031 2453 
Q 713 1422 288 828 
Q 206 1097 88 1378 
z
M 5319 1109 
L 3194 1109 
L 3194 -109 
L 5319 -109 
L 5319 1109 
z
M 5338 4203 
L 3413 4203 
Q 3775 3491 4300 3078 
Q 4938 3566 5338 4203 
z
" transform="scale(0.015625)"/>
      </defs>
      <use xlink:href="#MicrosoftYaHei-4ef7"/>
      <use xlink:href="#MicrosoftYaHei-683c" x="100"/>
     </g>
    </g>
    <g id="text_41">
     <!-- 1e6 -->
     <g style="fill: #555555" transform="translate(36.639688 21.711) scale(0.1 -0.1)">
      <defs>
       <path id="MicrosoftYaHei-65" d="M 3363 1572 
L 944 1572 
Q 959 1019 1246 717 
Q 1534 416 2050 416 
Q 2631 416 3116 788 
L 3116 241 
Q 2659 -81 1906 -81 
Q 1156 -81 736 394 
Q 316 869 316 1713 
Q 316 2506 777 3022 
Q 1238 3538 1922 3538 
Q 2600 3538 2981 3102 
Q 3363 2666 3363 1881 
L 3363 1572 
z
M 2750 2063 
Q 2747 2531 2528 2787 
Q 2309 3044 1913 3044 
Q 1547 3044 1280 2772 
Q 1013 2500 944 2063 
L 2750 2063 
z
" transform="scale(0.015625)"/>
      </defs>
      <use xlink:href="#MicrosoftYaHei-31"/>
      <use xlink:href="#MicrosoftYaHei-65" x="58.642578"/>
      <use xlink:href="#MicrosoftYaHei-36" x="115.380859"/>
     </g>
    </g>
   </g>
   <g id="PolyCollection_1">
    <path d="M 56.930597 269.048351 
L 56.930597 357.351 
L 70.924327 357.351 
L 84.918057 357.351 
L 98.911788 357.351 
L 112.905518 357.351 
L 126.899249 357.351 
L 140.892979 357.351 
L 154.886709 357.351 
L 168.88044 357.351 
L 182.87417 357.351 
L 196.867901 357.351 
L 210.861631 357.351 
L 224.855361 357.351 
L 238.849092 357.351 
L 252.842822 357.351 
L 266.836553 357.351 
L 280.830283 357.351 
L 294.824014 357.351 
L 308.817744 357.351 
L 322.811474 357.351 
L 336.805205 357.351 
L 350.798935 357.351 
L 364.792666 357.351 
L 378.786396 357.351 
L 392.780126 357.351 
L 406.773857 357.351 
L 420.767587 357.351 
L 434.761318 357.351 
L 448.755048 357.351 
L 462.748778 357.351 
L 462.748778 290.678992 
L 462.748778 290.678992 
L 448.755048 286.64484 
L 434.761318 292.187323 
L 420.767587 277.344169 
L 406.773857 274.793068 
L 392.780126 288.138424 
L 378.786396 277.156681 
L 364.792666 281.921827 
L 350.798935 254.502229 
L 336.805205 249.861373 
L 322.811474 252.410368 
L 308.817744 228.742637 
L 294.824014 259.07146 
L 280.830283 231.940467 
L 266.836553 231.426455 
L 252.842822 242.187004 
L 238.849092 252.709506 
L 224.855361 224.8728 
L 210.861631 221.028242 
L 196.867901 217.897824 
L 182.87417 246.065267 
L 168.88044 262.121827 
L 154.886709 252.227093 
L 140.892979 251.015794 
L 126.899249 239.766512 
L 112.905518 254.46431 
L 98.911788 262.372513 
L 84.918057 258.361533 
L 70.924327 266.657352 
L 56.930597 269.048351 
z
" clip-path="url(#p9d3eff60cc)" style="fill: #4169e1"/>
   </g>
   <g id="PolyCollection_2">
    <path d="M 56.930597 156.026353 
L 56.930597 269.048351 
L 70.924327 266.657352 
L 84.918057 258.361533 
L 98.911788 262.372513 
L 112.905518 254.46431 
L 126.899249 239.766512 
L 140.892979 251.015794 
L 154.886709 252.227093 
L 168.88044 262.121827 
L 182.87417 246.065267 
L 196.867901 217.897824 
L 210.861631 221.028242 
L 224.855361 224.8728 
L 238.849092 252.709506 
L 252.842822 242.187004 
L 266.836553 231.426455 
L 280.830283 231.940467 
L 294.824014 259.07146 
L 308.817744 228.742637 
L 322.811474 252.410368 
L 336.805205 249.861373 
L 350.798935 254.502229 
L 364.792666 281.921827 
L 378.786396 277.156681 
L 392.780126 288.138424 
L 406.773857 274.793068 
L 420.767587 277.344169 
L 434.761318 292.187323 
L 448.755048 286.64484 
L 462.748778 290.678992 
L 462.748778 206.896701 
L 462.748778 206.896701 
L 448.755048 197.373151 
L 434.761318 210.159835 
L 420.767587 177.509953 
L 406.773857 171.125248 
L 392.780126 199.025995 
L 378.786396 175.0507 
L 364.792666 186.297454 
L 350.798935 124.586927 
L 336.805205 115.58708 
L 322.811474 117.030528 
L 308.817744 72.032136 
L 294.824014 134.491772 
L 280.830283 71.67949 
L 266.836553 75.151179 
L 252.842822 95.612232 
L 238.849092 119.482197 
L 224.855361 58.3295 
L 210.861631 49.609832 
L 196.867901 40.551 
L 182.87417 106.430081 
L 168.88044 139.415335 
L 154.886709 119.726142 
L 140.892979 115.363359 
L 126.899249 91.23723 
L 112.905518 124.968223 
L 98.911788 142.493509 
L 84.918057 137.17559 
L 70.924327 152.785127 
L 56.930597 156.026353 
z
" clip-path="url(#p9d3eff60cc)" style="fill: #fa8072"/>
   </g>
   <g id="patch_3">
    <path d="M 36.639688 357.351 
L 36.639688 24.711 
" style="fill: none; stroke: #ffffff; stroke-linejoin: miter; stroke-linecap: square"/>
   </g>
   <g id="patch_4">
    <path d="M 483.039688 357.351 
L 483.039688 24.711 
" style="fill: none; stroke: #ffffff; stroke-linejoin: miter; stroke-linecap: square"/>
   </g>
   <g id="patch_5">
    <path d="M 36.639688 357.351 
L 483.039688 357.351 
" style="fill: none; stroke: #ffffff; stroke-linejoin: miter; stroke-linecap: square"/>
   </g>
   <g id="patch_6">
    <path d="M 36.639688 24.711 
L 483.039688 24.711 
" style="fill: none; stroke: #ffffff; stroke-linejoin: miter; stroke-linecap: square"/>
   </g>
   <g id="text_42">
    <!-- 双十一进货价格与实际价格对比面积图 -->
    <g transform="translate(137.439687 18.711) scale(0.144 -0.144)">
     <defs>
      <path id="MicrosoftYaHei-53cc" d="M 2950 4384 
L 2950 4859 
L 5894 4859 
L 5894 4403 
Q 5628 2144 4750 953 
Q 5413 184 6325 -241 
Q 6106 -503 5919 -716 
Q 5072 -181 4434 566 
Q 3728 -222 2525 -866 
Q 2413 -703 2194 -428 
Q 3406 159 4119 963 
Q 3269 2159 3119 4384 
L 2950 4384 
z
M 250 3634 
L 644 3878 
Q 1213 3041 1778 2156 
Q 2159 3163 2275 4372 
L 175 4372 
L 175 4847 
L 2775 4847 
L 2775 4372 
Q 2559 2756 2091 1659 
Q 2509 1000 2925 309 
L 2513 -9 
Q 2163 584 1831 1131 
Q 1297 153 456 -653 
Q 263 -447 69 -303 
Q 1047 616 1541 1606 
Q 850 2734 250 3634 
z
M 5369 4384 
L 3578 4384 
Q 3738 2388 4428 1366 
Q 5172 2488 5369 4384 
z
" transform="scale(0.015625)"/>
      <path id="MicrosoftYaHei-5341" d="M 156 2978 
L 2913 2978 
L 2913 5284 
L 3488 5284 
L 3488 2978 
L 6250 2978 
L 6250 2472 
L 3488 2472 
L 3488 -828 
L 2913 -828 
L 2913 2472 
L 156 2472 
L 156 2978 
z
" transform="scale(0.015625)"/>
      <path id="MicrosoftYaHei-4e00" d="M 100 2703 
L 6313 2703 
L 6313 2153 
L 100 2153 
L 100 2703 
z
" transform="scale(0.015625)"/>
      <path id="MicrosoftYaHei-8fdb" d="M 1756 2416 
L 2828 2416 
Q 2838 2903 2838 3741 
L 2050 3741 
L 2050 4191 
L 2838 4191 
L 2838 5291 
L 3338 5291 
L 3338 4191 
L 4575 4191 
L 4575 5291 
L 5075 5291 
L 5075 4191 
L 6000 4191 
L 6000 3741 
L 5075 3741 
L 5075 2416 
L 6244 2416 
L 6244 1966 
L 5075 1966 
L 5075 66 
L 4575 66 
L 4575 1966 
L 3291 1966 
Q 3106 691 2213 66 
Q 2050 247 1831 447 
Q 2597 931 2778 1966 
L 1756 1966 
L 1756 2416 
z
M 2606 -191 
L 4088 -222 
L 6300 -166 
Q 6231 -372 6125 -659 
L 4050 -666 
L 2544 -634 
Q 1513 -616 1081 91 
Q 825 -147 331 -747 
L 75 -228 
Q 628 306 875 538 
L 875 2641 
L 131 2641 
L 131 3103 
L 1356 3103 
L 1356 438 
Q 1744 -175 2606 -191 
z
M 3331 2416 
L 4575 2416 
L 4575 3741 
L 3338 3741 
Q 3338 2666 3331 2416 
z
M 813 5216 
Q 1288 4622 1688 4034 
Q 1425 3866 1225 3722 
Q 881 4322 413 4947 
L 813 5216 
z
" transform="scale(0.015625)"/>
      <path id="MicrosoftYaHei-8d27" d="M 2038 3772 
Q 2744 3941 3381 4147 
L 3381 5297 
L 3869 5297 
L 3869 4316 
Q 4794 4653 5544 5084 
L 5838 4666 
Q 4888 4203 3869 3822 
L 3869 3547 
Q 3869 3128 4269 3128 
L 5231 3128 
Q 5644 3128 5700 3491 
Q 5744 3759 5769 4153 
Q 6000 4053 6256 3972 
Q 6206 3559 6150 3278 
Q 6038 2691 5288 2691 
L 4175 2691 
Q 3381 2691 3381 3466 
L 3381 3647 
Q 2831 3459 2269 3297 
L 2038 3772 
z
M 981 2303 
L 5494 2303 
L 5494 216 
L 5006 216 
L 5006 1866 
L 1469 1866 
L 1469 216 
L 981 216 
L 981 2303 
z
M 169 3584 
Q 1269 4384 1850 5372 
L 2300 5116 
Q 2006 4678 1644 4266 
L 1644 2541 
L 1181 2541 
L 1181 3784 
Q 831 3447 431 3134 
Q 313 3359 169 3584 
z
M 2994 1578 
L 3481 1578 
Q 3488 847 3425 603 
Q 4706 166 6069 -372 
L 5844 -859 
Q 4469 -266 3263 159 
Q 2781 -666 556 -884 
Q 463 -678 313 -409 
Q 2463 -247 2856 447 
Q 3006 691 2994 1578 
z
" transform="scale(0.015625)"/>
      <path id="MicrosoftYaHei-4e0e" d="M 1163 2384 
L 1163 2859 
L 1413 5328 
L 1931 5328 
L 1834 4334 
L 6269 4334 
L 6269 3859 
L 1791 3859 
L 1694 2859 
L 5813 2859 
Q 5738 1547 5644 416 
Q 5556 -247 5263 -478 
Q 4981 -703 4322 -703 
Q 3706 -697 2900 -678 
Q 2863 -466 2794 -134 
Q 3744 -203 4213 -209 
Q 5050 -266 5125 447 
Q 5206 1278 5263 2384 
L 1163 2384 
z
M 106 1409 
L 4738 1409 
L 4738 934 
L 106 934 
L 106 1409 
z
" transform="scale(0.015625)"/>
      <path id="MicrosoftYaHei-5b9e" d="M 113 -397 
Q 2419 34 3081 972 
L 213 972 
L 213 1434 
L 3313 1434 
Q 3525 2084 3506 3703 
L 4031 3703 
Q 4031 2097 3856 1434 
L 6225 1434 
L 6225 972 
L 3681 972 
Q 3631 872 3563 759 
Q 4900 197 6181 -403 
L 5906 -878 
Q 4569 -197 3263 391 
Q 2413 -441 413 -891 
Q 269 -616 113 -397 
z
M 331 4422 
L 3194 4422 
Q 3038 4703 2775 5078 
L 3231 5334 
Q 3438 5059 3731 4609 
L 3388 4422 
L 6063 4422 
L 6063 3303 
L 5563 3303 
L 5563 3959 
L 831 3959 
L 831 3303 
L 331 3303 
L 331 4422 
z
M 1100 2734 
Q 1819 2409 2450 2053 
L 2181 1622 
Q 1556 2003 863 2334 
L 1100 2734 
z
M 1663 3691 
Q 2388 3341 2981 2984 
L 2700 2559 
Q 2119 2934 1419 3322 
L 1663 3691 
z
" transform="scale(0.015625)"/>
      <path id="MicrosoftYaHei-9645" d="M 2256 1678 
Q 2419 503 1656 334 
Q 1413 284 1025 328 
Q 975 584 888 834 
Q 1219 753 1469 784 
Q 1906 834 1763 1678 
Q 1675 2166 1169 2828 
Q 1425 3591 1681 4491 
L 850 4491 
L 850 -841 
L 375 -841 
L 375 4953 
L 2200 4953 
L 2200 4503 
Q 1913 3572 1694 2884 
Q 2194 2203 2256 1678 
z
M 2150 3228 
L 6225 3228 
L 6225 2766 
L 4425 2766 
L 4425 16 
Q 4425 -747 3688 -747 
Q 3394 -747 2938 -741 
Q 2881 -403 2838 -209 
Q 3313 -259 3575 -259 
Q 3938 -259 3938 122 
L 3938 2766 
L 2150 2766 
L 2150 3228 
z
M 2488 4803 
L 5888 4803 
L 5888 4341 
L 2488 4341 
L 2488 4803 
z
M 2969 2097 
L 3431 1928 
Q 2988 747 2481 -222 
Q 2206 -72 2038 -3 
Q 2594 1003 2969 2097 
z
M 4900 1872 
L 5331 2084 
Q 5844 1041 6300 53 
L 5844 -166 
Q 5494 641 4900 1872 
z
" transform="scale(0.015625)"/>
      <path id="MicrosoftYaHei-5bf9" d="M 694 3691 
Q 1234 2909 1741 2166 
Q 2113 3081 2213 4147 
L 250 4147 
L 250 4622 
L 2725 4622 
L 2725 4166 
Q 2553 2809 2059 1700 
Q 2569 953 3044 247 
L 2594 -53 
Q 2203 563 1803 1181 
Q 1247 163 388 -622 
Q 263 -428 81 -166 
Q 975 638 1500 1647 
Q 919 2538 319 3434 
L 694 3691 
z
M 2975 3941 
L 5056 3941 
L 5056 5278 
L 5563 5278 
L 5563 3941 
L 6325 3941 
L 6325 3466 
L 5563 3466 
L 5563 191 
Q 5563 -716 4669 -716 
Q 4388 -716 3744 -709 
Q 3713 -478 3644 -147 
Q 4263 -197 4588 -197 
Q 5056 -197 5056 278 
L 5056 3466 
L 2975 3466 
L 2975 3941 
z
M 3088 2684 
L 3494 2928 
Q 4000 2184 4388 1484 
L 3919 1216 
Q 3550 1922 3088 2684 
z
" transform="scale(0.015625)"/>
      <path id="MicrosoftYaHei-6bd4" d="M 3225 5316 
L 3744 5316 
L 3744 2672 
Q 4959 3550 5744 4509 
L 6188 4178 
Q 5175 3063 3744 2056 
L 3744 247 
Q 3744 -166 4106 -166 
L 5175 -166 
Q 5588 -166 5650 203 
Q 5725 678 5763 1247 
Q 6025 1147 6300 1066 
Q 6244 484 6150 22 
Q 6019 -622 5319 -622 
L 3944 -622 
Q 3225 -622 3225 159 
L 3225 5316 
z
M 1063 5153 
L 1063 3278 
L 2825 3278 
L 2825 2809 
L 1063 2809 
L 1063 153 
Q 1713 428 2763 928 
Q 2763 634 2788 366 
Q 1869 -3 1231 -328 
Q 956 -472 725 -672 
L 344 -184 
Q 544 -34 544 272 
L 544 5153 
L 1063 5153 
z
" transform="scale(0.015625)"/>
      <path id="MicrosoftYaHei-9762" d="M 519 3659 
L 2500 3659 
Q 2681 4134 2794 4484 
L 188 4484 
L 188 4947 
L 6200 4947 
L 6200 4484 
L 3353 4484 
Q 3216 4144 3009 3659 
L 5850 3659 
L 5850 -809 
L 5369 -809 
L 5369 -459 
L 1000 -459 
L 1000 -816 
L 519 -816 
L 519 3659 
z
M 5369 3247 
L 4363 3247 
L 4363 -47 
L 5369 -47 
L 5369 3247 
z
M 1000 -47 
L 2006 -47 
L 2006 3247 
L 1000 3247 
L 1000 -47 
z
M 2456 -47 
L 3913 -47 
L 3913 784 
L 2456 784 
L 2456 -47 
z
M 2456 1184 
L 3913 1184 
L 3913 2016 
L 2456 2016 
L 2456 1184 
z
M 2456 2416 
L 3913 2416 
L 3913 3247 
L 2456 3247 
L 2456 2416 
z
" transform="scale(0.015625)"/>
      <path id="MicrosoftYaHei-79ef" d="M 2813 4784 
L 5975 4784 
L 5975 1528 
L 5500 1528 
L 5500 1828 
L 3288 1828 
L 3288 1528 
L 2813 1528 
L 2813 4784 
z
M 88 853 
Q 669 1728 1056 2947 
L 119 2947 
L 119 3384 
L 1119 3384 
L 1119 4378 
Q 713 4347 244 4316 
Q 213 4541 150 4772 
Q 1425 4841 2375 4978 
L 2488 4503 
Q 2106 4459 1581 4416 
L 1581 3384 
L 2513 3384 
L 2513 2947 
L 1581 2947 
L 1581 2066 
L 1831 2297 
Q 2213 1922 2644 1441 
L 2288 1128 
Q 1950 1541 1581 1934 
L 1581 -853 
L 1119 -853 
L 1119 1928 
Q 781 997 306 316 
Q 206 591 88 853 
z
M 5500 4359 
L 3288 4359 
L 3288 2253 
L 5500 2253 
L 5500 4359 
z
M 3475 1128 
L 3888 834 
Q 3175 -66 2519 -759 
Q 2369 -597 2163 -416 
Q 2925 353 3475 1128 
z
M 4775 828 
L 5163 1097 
Q 5738 441 6356 -372 
L 5919 -703 
Q 5369 109 4775 828 
z
" transform="scale(0.015625)"/>
      <path id="MicrosoftYaHei-56fe" d="M 431 5072 
L 5944 5072 
L 5944 -809 
L 5475 -809 
L 5475 -509 
L 900 -509 
L 900 -809 
L 431 -809 
L 431 5072 
z
M 5475 4622 
L 900 4622 
L 900 -59 
L 5475 -59 
L 5475 4622 
z
M 1113 3091 
Q 1969 3709 2519 4547 
L 2931 4353 
Q 2816 4181 2681 4016 
L 4894 4016 
L 4894 3647 
Q 4434 3091 3722 2644 
Q 4381 2422 5338 2297 
Q 5194 2016 5131 1828 
Q 4022 2081 3256 2400 
Q 2491 2056 1225 1728 
Q 1138 1934 1013 2128 
Q 2109 2353 2825 2644 
Q 2384 2947 2066 3341 
Q 1769 3056 1419 2784 
Q 1294 2916 1113 3091 
z
M 1563 672 
L 1694 1103 
Q 3256 897 4700 622 
L 4531 147 
Q 3150 453 1563 672 
z
M 4275 3628 
L 2347 3628 
Q 2338 3616 2328 3606 
Q 2691 3141 3244 2841 
Q 3891 3188 4275 3628 
z
M 2219 1503 
L 2344 1922 
Q 3263 1784 4275 1609 
L 4144 1172 
Q 3119 1378 2219 1503 
z
" transform="scale(0.015625)"/>
     </defs>
     <use xlink:href="#MicrosoftYaHei-53cc"/>
     <use xlink:href="#MicrosoftYaHei-5341" x="100"/>
     <use xlink:href="#MicrosoftYaHei-4e00" x="200"/>
     <use xlink:href="#MicrosoftYaHei-8fdb" x="300"/>
     <use xlink:href="#MicrosoftYaHei-8d27" x="400"/>
     <use xlink:href="#MicrosoftYaHei-4ef7" x="500"/>
     <use xlink:href="#MicrosoftYaHei-683c" x="600"/>
     <use xlink:href="#MicrosoftYaHei-4e0e" x="700"/>
     <use xlink:href="#MicrosoftYaHei-5b9e" x="800"/>
     <use xlink:href="#MicrosoftYaHei-9645" x="900"/>
     <use xlink:href="#MicrosoftYaHei-4ef7" x="1000"/>
     <use xlink:href="#MicrosoftYaHei-683c" x="1100"/>
     <use xlink:href="#MicrosoftYaHei-5bf9" x="1200"/>
     <use xlink:href="#MicrosoftYaHei-6bd4" x="1300"/>
     <use xlink:href="#MicrosoftYaHei-9762" x="1400"/>
     <use xlink:href="#MicrosoftYaHei-79ef" x="1500"/>
     <use xlink:href="#MicrosoftYaHei-56fe" x="1600"/>
    </g>
   </g>
   <g id="legend_1">
    <g id="patch_7">
     <path d="M 406.039688 41.70475 
L 426.039688 41.70475 
L 426.039688 34.70475 
L 406.039688 34.70475 
z
" style="fill: #4169e1"/>
    </g>
    <g id="text_43">
     <!-- 进货价格 -->
     <g transform="translate(434.039688 41.70475) scale(0.1 -0.1)">
      <use xlink:href="#MicrosoftYaHei-8fdb"/>
      <use xlink:href="#MicrosoftYaHei-8d27" x="100"/>
      <use xlink:href="#MicrosoftYaHei-4ef7" x="200"/>
      <use xlink:href="#MicrosoftYaHei-683c" x="300"/>
     </g>
    </g>
    <g id="patch_8">
     <path d="M 406.039688 57.184438 
L 426.039688 57.184438 
L 426.039688 50.184438 
L 406.039688 50.184438 
z
" style="fill: #fa8072"/>
    </g>
    <g id="text_44">
     <!-- 实际售价 -->
     <g transform="translate(434.039688 57.184438) scale(0.1 -0.1)">
      <defs>
       <path id="MicrosoftYaHei-552e" d="M 3100 5147 
L 3500 5384 
Q 3775 5028 3994 4703 
L 3756 4559 
L 6044 4559 
L 6044 4172 
L 3825 4172 
L 3825 3722 
L 5850 3722 
L 5850 3334 
L 3825 3334 
L 3825 2884 
L 5850 2884 
L 5850 2497 
L 3825 2497 
L 3825 2034 
L 6169 2034 
L 6169 1647 
L 1319 1647 
L 1319 1403 
L 856 1403 
L 856 3522 
Q 600 3222 331 2953 
Q 206 3147 38 3347 
Q 969 4216 1500 5341 
L 1950 5178 
Q 1775 4853 1594 4559 
L 3494 4559 
Q 3319 4847 3100 5147 
z
M 869 1159 
L 5594 1159 
L 5594 -853 
L 5131 -853 
L 5131 -534 
L 1331 -534 
L 1331 -853 
L 869 -853 
L 869 1159 
z
M 5131 759 
L 1331 759 
L 1331 -134 
L 5131 -134 
L 5131 759 
z
M 1319 2034 
L 3363 2034 
L 3363 2497 
L 1319 2497 
L 1319 2034 
z
M 1319 2884 
L 3363 2884 
L 3363 3334 
L 1319 3334 
L 1319 2884 
z
M 1319 3722 
L 3363 3722 
L 3363 4172 
L 1344 4172 
L 1319 4134 
L 1319 3722 
z
" transform="scale(0.015625)"/>
      </defs>
      <use xlink:href="#MicrosoftYaHei-5b9e"/>
      <use xlink:href="#MicrosoftYaHei-9645" x="100"/>
      <use xlink:href="#MicrosoftYaHei-552e" x="200"/>
      <use xlink:href="#MicrosoftYaHei-4ef7" x="300"/>
     </g>
    </g>
   </g>
  </g>
 </g>
 <defs>
  <clipPath id="p9d3eff60cc">
   <rect x="36.639688" y="24.711" width="446.4" height="332.64"/>
  </clipPath>
 </defs>
</svg>
